<mxfile host="app.diagrams.net" modified="2022-10-10T06:56:58.978Z" agent="5.0 (Macintosh; Intel Mac OS X 10_15_7) AppleWebKit/537.36 (KHTML, like Gecko) Chrome/106.0.0.0 Safari/537.36" etag="oDp5jEdVNJKyQKNlefXO" version="20.4.0" type="github">
  <diagram name="Page-1" id="e3a06f82-3646-2815-327d-82caf3d4e204">
    <mxGraphModel dx="6553.5" dy="3100.5" grid="1" gridSize="10" guides="1" tooltips="1" connect="1" arrows="1" fold="1" page="1" pageScale="1.5" pageWidth="1169" pageHeight="827" math="0" shadow="0">
      <root>
        <mxCell id="0" style=";html=1;" />
        <mxCell id="1" style=";html=1;" parent="0" />
        <mxCell id="6a7d8f32e03d9370-62" value="Knowmax High Level System Design" style="text;strokeColor=none;fillColor=none;html=1;fontSize=99;fontStyle=1;verticalAlign=middle;align=center;" parent="1" vertex="1">
          <mxGeometry x="-725" y="-840" width="3180" height="270" as="geometry" />
        </mxCell>
        <mxCell id="PYnxVORSXo-nh4O1T2eK-24" style="edgeStyle=orthogonalEdgeStyle;orthogonalLoop=1;jettySize=auto;html=1;entryX=0.5;entryY=0;entryDx=0;entryDy=0;strokeColor=none;shape=flexArrow;rounded=0;" parent="1" target="PYnxVORSXo-nh4O1T2eK-23" edge="1">
          <mxGeometry relative="1" as="geometry">
            <mxPoint x="1090" y="240" as="sourcePoint" />
          </mxGeometry>
        </mxCell>
        <mxCell id="lCqg1MIeucwMHsoLbIJ3-20" style="edgeStyle=orthogonalEdgeStyle;shape=flexArrow;rounded=0;orthogonalLoop=1;jettySize=auto;html=1;entryX=0.5;entryY=0;entryDx=0;entryDy=0;fontSize=42;fillColor=#0066CC;" parent="1" source="PYnxVORSXo-nh4O1T2eK-25" edge="1">
          <mxGeometry relative="1" as="geometry">
            <mxPoint x="900" y="840" as="targetPoint" />
          </mxGeometry>
        </mxCell>
        <mxCell id="PYnxVORSXo-nh4O1T2eK-25" value="Load Balance &amp;amp;&lt;br style=&quot;font-size: 63px;&quot;&gt;&amp;nbsp;API Gateway" style="text;html=1;resizable=0;autosize=1;align=center;verticalAlign=middle;points=[];fillColor=none;strokeColor=none;strokeWidth=13;fontSize=63;" parent="1" vertex="1">
          <mxGeometry x="630" y="510" width="470" height="160" as="geometry" />
        </mxCell>
        <mxCell id="PYnxVORSXo-nh4O1T2eK-74" value="" style="rounded=1;whiteSpace=wrap;html=1;glass=0;dashed=1;strokeWidth=1;fontFamily=Helvetica;fontSize=28;fontColor=default;gradientColor=none;" parent="1" vertex="1">
          <mxGeometry x="1920" y="970" width="310" height="310" as="geometry" />
        </mxCell>
        <mxCell id="PYnxVORSXo-nh4O1T2eK-77" value="" style="shape=image;imageAspect=0;aspect=fixed;verticalLabelPosition=bottom;verticalAlign=top;rounded=1;glass=0;dashed=1;strokeWidth=1;fontFamily=Helvetica;fontSize=31;fontColor=default;gradientColor=none;image=data:image/png,iVBORw0KGgoAAAANSUhEUgAAAMIAAAEECAMAAABN+RseAAABMlBMVEX///8AK08Skk8QqlAAJ0wAJkwAKU4RplAAI0oAIUn19vjF0NgXQ2QADkAyTWkAJErr7/IAADpEVW1re40AHUcAMFbT2N06VG9bdIvh5uq0wMtmcoQAFUO4xMJPaIAAJk8yRmKwtb0mSGZpgpcZNleIkZ4AADliboGTmqY7W3YAI08AGEQAN1w6T2kTlk/d4+kOnVAAi0EQhk8RjE8FTE8Oe08MbE9yzJfE5NOLnKOMoLB3jJ+bqbYDPU8JW08AL08DN08IZU8DO08GRE8LgFBMYHgFSE8KalAHUk8KYU8Jc08GWFARsVAAHE8jPVw2j3BNsHsenF3k8uuT2K6z48ayzsI0m2ZYpn+e0rdQvnp0rpJ9wp4ys2SZuazn8uyK06ZPtHpjqYR5mJiCqJuaq66vvLwqkKsRAAASVklEQVR4nO2de3ubSJaHjUxVKBASMghJWEbWLbaELCV2nO0IEifdIYmTtLZnZruz25v0zux2f/+vsBTogriWCiTFz6PfPyECQ73U/dSpw9FRXuIdSfxE0yzTNLuDddWd36aaJkgSvozP7aE5SZpMVLU9lfVOsVKpNJsGQohjwZo45zel2RQrlWpRr5uWpqoT6bsgaQha+1IedKDoJJwDLJMuyJY5xRCVUa3et9qCKu0x+c6L71+URoqTdhYSpD2E4pDAzkDuW0JjD8mfWLJd6rE48RSp94kFCFU7JxdTYafpF7odp3BTvfpoQcCVATOwdpIZUkOrKyIiTv0dMQUDy4ZYmqpbxlA1udhEm7zedxvlFGQNpWYJW6vgvNavGWizwtN6tdHlWMCYydZkKwDTixkCm5b+1vuXm1cYiKonspo7gHXOcBS1d3j7obX5XzlZwc3quTZRklVtApqUMMOb6xZduwWRqOdWnHhtIFI2n+Dlk8InqmzAQs1pPs2TajbLlGmArdtHhbc/UncfUKm1cxhGtWubNKLrGn548qhQeM/Qd4Fcz8zcwvarNLXYU+vlzbGDcENXoz1BUMtYIwYK/RtsvSwcY4Tx9U90bYEnrpWlfZV0hfrJcPhs/NlFKIxvX2cZTbE9jZqA727YF/sJ4Ksnx8ceQmH8fOM+0S+uRp0P1h09AXjz6HiJUCjcDzMgMEinbFzVDnURhq17j2CBcPMqQ5VmGGVK1bZKMn1r2ro/Pl5DKFw/y8IAIVXTqlapi9Hw/nMQYXz9LEt1UEwaBKtJ+7zWh0fHQQTctGbIB3ZEQeA0R5SPGz57chxGKIzf/pihe3hMURl4naN7WOunm+MoBKd7yGApECnaVb5IYhMKC969PY5GKBSeD6kZRIrZAyUCZD4exyIU7qm7uB0irJrTKISbD98/QuunJ0kIY+rJw84QICwcJyEUxh8pJw87Qxh+PE5GKBQoJw+7Qmh9epKKUKAbO+4IAbwMFqMIBMreYTcI8C5UjKJyoUA1aN0NAvgQKkaRCFTz0J0gwLubMEEUQuE5RXXYCcLwPoIgEuGGYu6wCwR494gUgcYcsAuE4cfPpAiF8auNa8MOEEBwZJGEULjeOBt2gNB6G0kQgzB+s6lFY/sIragGNR6hcLNpo7R1BMjEZEIcgjP7+c4QWs9iMiEW4eblZjV62wiRQ4tkhML7zUrSthHAy/HGCBsOM6gQNjBHgjdxBPEIhfuNsoEKoU5shAnP1QgQNpyD0iAcmcRrC+BdZMeckgvjVxsgwAoFwZFmkN7/57gWNRnhdoO+AQxoEBqklSFmgJeGUChsUKFFiwaBvyTMhtareIIkhDF598Z26NZIJjaZYfjnqKkOSS4UiG17YpuKwKkNPZKuIW6Mmo4wJjXIoD71ArpFskoyfJ9QFZIRbolKEuTqGfwYLAJTdOs6gSC5IN0QTRsUO5Njj6WktRowwnhEikBkjxHrGZf/tWJKD9d6lVSOUhBuU5tVVszuhDHRUeJzWtFzZjKE6xSfMYh6VB1CUFYJxbdM8HVC15yKkFKSUE/OVIhW+TcxZ7HeJOCnxKqQgpBoq+egvXK+oGmTeL/vhmBWY6qEf4GWAuE2drhaRnrbl26adWd+rSGQVNOIzAnwJrEqpBWkm3eRFQ0CsaatvfgTqhXP9YrEN7otMeRe5Uw5MyGMIyoDBIrYEdb7Y4GhmniGXWg0fcasV214l9ixpSO8D4y4IYd6V2aw5EunFSoEwwyPTITpaQn4Wln4Y9IAiQBhzbyK02/LEQ5UFqSc/qOoNpkX2mapZcyLFHyZTJCGULhZ9gysIhbrl1pUK6rNACUCO4ruV3hVu9SrIh57tJ4lV4VUhLFbnyFqGjWzHeM1r51z1EYYUI3rG3mpIZgDoyJ+yorwCRliZVRvN2I39gg9LoMdCYKI+uCTav17VoTn+lRIfIbF4AaE3hQGDT25Qf63jHWh8EtyMiTT646yWPOUjpU0VMyM8LfERGj2fFSQySDJKlHNXG4ITxPSoJrVxfQ9o00VzeI3RGwRQeqXVn6yWc3CEPTipk7ZEf4eAzDtQN/4KbtlG6KKHrlLKDvCD1EPV7sVY20kk4txnmvWrPBmxn/kj8BPtDoXHNvns74AQXMktwON+H/kjTDR+iUlbIPLbYkEIlCSLf/d8kWYWKZdjTSa5LnKAxAzs83lDX/I2Dv7ENRp/arHlaOncTkvVEG8d3lgCnjj9R95IPD8xNJHCleON7Lmv9YG8dQKDbqWmrkg/apO9ZFopOy32dZyIUBNJnahkBBhzIgKwXah7a14wtfZJp4YgchCv0WEjNN/Z9q2bwQGvs+I8HbvCK1P2QrS+Hb/CLHeF4QIhI4M2yxIL5NW2ggQCFeft4lwd5sN4RnZyu023UiGz7MhEC4+bxMhwk97E4RrQk+MbSJkWmsrjD8SOhpuFQHQr3hiP0Oih2zZpWr4nHbdGesToR/GVhHAO9rVf1wVopdIckIg3dcGh0mD1bSFKlKfWyoE4t2Fw/f0CM9J/XkqNKvPFqlLVeIaQzLCDWmECdiiIDgSiGNwDBOa1WxL50uhOg2CJJM657XuaXzzsG5JNzIYdJ4kGukWtCTPtmSEe0IERaZzSOL7pHUNxk/dcnDmYZhyh9aPoaETNkrgGVUujD+SOeeBGX0UCZUwmEqCESARgaxfAz1azzyXIc0baa5WrMdzEsI1mV9bkz4PsCZ1orhC8f4wSU6eJJUZcq1sBLhOV0kGGrETnwQEksoMMkQiWUmzufQiC1/HZEOCw/Ob9DeDZtnd2rAa/U56bJi4bIhHuEmdcnJG0kIlgXydibBaeYzNhrtNNoXhTEjbJgkMu73KAprMWPMK49WumAIxjB5lxO8iSWxRIWiWNH+yabwM+e66T8ekriSHzfs5MhtiET4mbHsGnFIMFCGdatYWBJemdlLwv1ZkFx2HEL+VB6DqlRxMsAaoEOzQwITX+vZIiVlKgndvI4pSHELM9kJW4UpyOKAnL9N5hUX6q6sOBYxekgFR5tUYhOuougyUZse0otLa7tFN/8vVyLEJ31AtvSUqIetAMBBJAsI4tOMZcobSMWOi9AoljtKCAZi4ZpmXBLP4uKmsR4UlCl/gEvjrMoQAGZWqbsVGS5ZKiNoIkzLC0kz9fFZlOATmlTxis2rklm13rzB0Ws6y0/H3ZifdxHC2k2omrzCYFqRLtabyhd2ZQUVBZaCkh/Io4MgwHIcUjumc2LKZFgCW11xvkgxeYbBLMMxqCJp12Zf12mwUKkoRCM9rtVP50rI0gvjU0rTqtr4ZrHkQ2aQdozRRBeHXYMN6EyL4cqaqDcK5sHAxrzWZDJJc73ST8e4/Agy/BQn+FuW9E5OG7nk+XmGQq24w5P0j4KH0JUDw9D+JU2DNuGXLndkrTIFT0qw/+vt/+Qk+/z5eJ/hvwts0rFHT1/Xk4BVmKH3S2NE/fPUzfHu6RvAvojfBq+1Oc63/zsM4D5WRHNn5h+X3UXp05s+Fp1/+IPh7qW12jMAoMCevMMRcmYlOqwv9zwrh65m/Pn+J8SX0SzDtUXjzUG5LJAD1zusEk8FVdfjnma8+pzdGqlmblaMGkTmu8kAWNR8PrEbKdywWDJ9/P/u2LEm/JRHwPK/VjYoCoqdCeS9UlY1mp6upk/hCtWiWPn87+/ZbKoEz+BX6AyUpmv0W1toAalZrstUWJtHZMWf4+uvZmdesPo0hwJ/R6OtFUUk2V21nuRAPkmHHlvtTLaK99ZrWf56dzbPhlxCBpDojK/OiVlUI3MK2uOLJcgjB3rkz5uxamuCfqv7gVQVHvzvj6198bRFOuylfnFzNekDhyPZtbz0aCf4mBgfcb3p0BrppOkNoTfj29fjrN4xw9q/Cl78EQXN+rw8GzjQEsvgP8PXEAQx2FLENj83xNAYpiiE6el345czT/yrOf5uKU2LK5Q3SvXOEkFrv/s8j+JM+xu+eEZiW7BL8ZWeJdr5fBE7/CyO86GX/dMy+EGDxT4wgU4b4/R4QGPQC14Ra9nK0RwRcGV7McvgE0d4QgO1UhhfZ77NHBNjBCPSB31faGwIDMAL9RxxW2h9C8899IgxyaEcYxdxnQaKOOe8XbpJeEH8tLEEVmigSU+JAWwnidAdhlP0+UKEgOFLzKMJ5IdB5hTVoQ//7BYv5IFS27BW2fQSlTukVZubQJlVf5IBQPqf1JZkMshclyMgX1Yz3YDP4VKlF2m+E+Rjov3G1UEoMhWQ1hjlU6YyCYpceADOUMn2aKQdxTNY4VZLZ22dGQO4k+ycM+XYtj26aTqgaCtJDJbVvZK/VNILiIK+vkvLCIBzcaevpB0Z1mudnVbUaJDR+5gTAgVmuAFiCfl6O8UTKPf0sqtq5A7gQfZtJiKCXmzhUkq1tfUJ84n5YeKtZAQxFt5KjDWWUNNHqcGt1GxjGYOsfeD7C63oajrKVb+2GLIeMyoDcxyC7JtP61ayay7fCIeDwOpFtZnUv31y8YPUvajPGQAnhK1JTryjVmi5PtX18ct6VpGrtS1kvVkVD2SRHcLlRms3ioN632tv7Ljg5R0MVNMus10bDitg0kJMrbAQOhCwLEE75Y3FUrHcv24I62dvLjxIvSVKjIbStelfvFIvVx5V1Pa4Ui85b75ptrdFwrk1xHzjooIMOOuiggw466KCDDjrooIMOOuigZE3UgJbmskbozHdqi7Jh1a/RyL701m2lbmv9TFHvZ1/R3YZOOLguoHRcHwxJVoJnjFKWiDdb00nY/wYUsSeMJIdd7bjS95gPEQiM+3GaKASo9Ped3ggtEACO5j03kIOB5EPgELc8w118V8ZxT3OEni3Lp6cDzzMNjnwInHwqy7LtuYYAPeMH6bYhDwF2LMmRVgwjVPAJaeLFcICDHIIP5a0Fgrv0JnkvG1b9CN51I68ozRFU/RxrNhXcgyt3v7/mHte6qyqv1a/OF7JNLwP5rvd/WTDdf3Vt2d2o3Zp7pWaV3FO9+Z0E7/fz4O2jEOZumvEIi1xQa4hlWVCFIgfwAarUpYFYnh/rXqIaJe+spzKqdPHvfF3BVzFVA7mXc815M8d35zcrK06JxX/ixUThBxW0ug3gKrqUBWGZC94+j96qsVJ8XnlN17GMLwVcbyHAAVfm31CurlwIFdttI6ahZVDP7boe8G6CKODAmQnB78no/35Xzy1XYiBFDIvfd8RnoJvW6pYhBCG0NQkGouJlQghp8bQpfntckA1y7UgEDr9WLezk4CJMw0/hLnNEgADC5XIrXG4DLOOSdD6/BIniImBV04/ALq9nO87z2s3QbVyERffUcm4zL5mBDpa2Os/TN51O615xgj187Pn5olOM4EX2KGmCILSNEALsTqemrxGfI7D455ovGoeXDNiznNsIzdwROOyeLpTcU2XbOZ54BZdbIbg0R1IliMAOnDos6XD5vDmCG4z2UlkhnM4R3Oc+pkIQ3bnCxHsAN++d5wgIFxjNQ+D0aISLaISy3sDPCyM08kdgRFfeMZqHKX1gCD7BhTv3w0VgF87QDxcBnkweJALHOfMFb/SwnPI8LATuAqvu9QPoQnqACN58QfJuCmz1ISJ410V2bQ8RgTkgHBAOCLtC2MJIdccIONl8H1EjSHo5GWHzRhXYE6dXUUVSBKZaLC72R64hqLh3SkRo4yuEWFOYBCgRmLtSXdfndoJEhLmhAq4ch/0Tz2rRuc2cLRKB6Q2cK/R5KBZY9A8wdKz55k12g955MLfKAG75kUclAUEL7011EUwudBsUiYCv4BZBygNmYd8ZdEo+RpqGdnDDkRaPIJ2GrncRrHCQnsCnvCON85cxxnlmk5HqvAr77yvzQQRmiXCk9ZBnuoALm5iLwM+CKUQnUgoChBD/aRRCeSYsELBBkjVchA6Hj5E3/XePFbcZ0nplzm9J9CbenkHSudxFAPiCsotwpNqzHjbA9Owau0I4msyA7zYsh84DVtUTxK4JcsgLui3JyvoZAFBvkYOqXsLqmM6xYHvHGGdS845l9yrB9E65qul9N6G82fEuwRaMrntcGsxfq2BNHWm8v19wbuq/TcmWg+sDeqe0LnsedVsyw2eWhkBeFVzhu0nC6pifHy9M+BNhpcb6byq/uk3Q4r+OgOPMhW+zkioEtGScxJ7ZjvjJUiZaR3goateuFpoxDxPBaoG5Fn0bVUCRfcoKtv/saN9J2lRBBKhk3QC/cwUQgBIVhP/7ltUUm0tVRL394AiOGppP/GEL2EEHHXTQQQcddNBBBx20H/0/CzGPVR6JzKEAAAAASUVORK5CYII=;" parent="1" vertex="1">
          <mxGeometry x="2019.04" y="1091.15" width="111.92" height="150" as="geometry" />
        </mxCell>
        <mxCell id="bDQ5LsFq3Ov2nf4bjj5g-22" value="" style="shape=image;imageAspect=0;aspect=fixed;verticalLabelPosition=bottom;verticalAlign=top;fontFamily=Helvetica;fontSize=33;fontColor=default;image=data:image/jpeg,/9j/4AAQSkZJRgABAQAAAQABAAD/2wCEAAkGBxASBg8PBw8VEBINDQ0PFhERFhcQHRUSGxUWFhQaGxYbHiosGCYpHxYYITEhLSk3Oi4uFys/ODYuNygtLisBCgoKDg0NFRAQFy0gHSUrKy4vLi0wLSstKystLS03Ky0rLS0tLy0tLS0tKy0tLS0tKy0tKy0rLS0rKy0tLS0rLf/AABEIAKgBLAMBIgACEQEDEQH/xAAbAAEBAQEBAQEBAAAAAAAAAAABAAIHBgUEA//EAD0QAAICAQIEBAMEBwcFAQAAAAABAgMEBREGEiExBxNBUSJhgRQyQmIVNnF1kaHBFhcjcoKxsyQzN6KyCP/EABkBAQEBAQEBAAAAAAAAAAAAAAECAAMFBP/EACERAQEBAQABBAIDAAAAAAAAAAABAhEhAxIiQTFRE2GB/9oADAMBAAIRAxEAPwDlAMQZ1e/UZNGQTUDEGZNBMiZggEAFQCAgMCZAgERGAYCwMEAgCU+xk0+xkwqBiBk1A+4g+5qkAIAmomRMQAEACYMWDMmgiIEssiZGS+yDEGdXu1GTRkyagYgwTQTIjBAIAKgEBDJERkAiIAGAsDBAIAlPsZNPsZMKgEDJqB9xB9zVIASYJoJkTEABAEpgxBmFBEQJZZEyMl9kGIM6vdqZk0zJk1AxBgmgiIwQCACoBAQyREZAIiABgLAwQCAJT7GTT7GTCoBAyKgfcQfc1AJkTAUEyJikAIAmoGIMyQREAZZEyMl9kGIM6vdqZk0zJk1AxBgmgiIwQCACoBAQyRECAREYBgLAwQCAJT7GTT7GTCoBAyKgfcQfc1AJkTAUEyJikAIAmoGIMyQREAZZEyMl9kGIM6vdqZk0zJk1AxBgmgiNVRTuirJcqcopy232W/V7euxhX7v0Jk/oP7c6n9m87yfN3j1s9uXff077Hzjtd2i4H908KP0rFY61ByWX5FmznvL4PL33+vyPCaHwliZXGK0/C1HzK50ynDIjU489ijzOHJJ9OifX8pMrhn1ey9+njwP752LKnOtpyFtOi2yqS/NGTjL+aPv6zwqsfg7Bz77n5moTny0cu21S5mp82/XpyPbb8fyHq7qeP7eXI6Fp3hn5vDeJqFmdXRRdCyd87lyqmKk4x2+L422ttuhuzw9w8nSb7uC9S+22YkXKdE63U5L8u+z9Ht0afbcOxyvq5c5I/vhYtl2XXThwc7LpxhCEe8pN7JHu8rgnS8W5Y3EuseVluMXKFFMroVNropT26+/p09DW8OtSOeMD0HGXCt2n58IZE42131+bTfX922v3Xs+q3XzXfc9ZwP4V/atEWfr2V9lx5xlOKXKm4L8cpS6QXR7dHuuvQ3U3eZOuZgdX13wuwI6FkZmg6tG2GLTO2Sk67k0k3tzVtbN9l0fc8dwHwZfqmpyqxZKuulRlbdJcygnvypL8Tez2XyZupnqZs68y+xk7XPwe02y2zG0vVnLKpjvKuTqs5X+auO0orqvX1OTa7ot+HrNmJqUeWyqai9uqaezjKL9U001/Rh1M9SafNA7NqXgVPz6P0Tmbwm35sro7OC23Tio/f9tun7TPEXgh5Wi2XaNlyutqhKzypxilYkt2otPo/bff+pup/ky42DPt8HcM36lrUMXT9otxc52S7V1rbeTXr3SS9W/Tuuo3eEOkwuWPlaw4ZLinySlRB9ez8p9dvqNGtyOJEz0PGvDP2DiOWFVesqUY1PmhFxe8+sYOO7+LbZ/6ke/0/wAHsanSIX8a6isSVm3wRlXXGDa3UXZZvzP9n8+4C7nHHjoXhfg02cPcQyy6YWSp0tzhKcYzcJclz3i2vhfRdV7F4h+GNmnYMczT7/tWJJwTnslKHNtyN7PaSe/3l7rofo8Jv1a4l/dL/wCO8ydWWOZ+hF6EY1AxBmSCIgDLImRkvsgxBnV7tRk0ZMmoGIME0ERGDpF//ger96v/AHmeF4f1OWLreNlV98e+ux7esU/iX1W6+p0LhuGPneF36NWbRi5FOc79smflpx3bTXuvi7r1Rz3XNO+z6nZQrqsjy+X/ABaJc8JbxT6S9dt9n80RP0+fHPlm/uvZ+LOhN8e1ywOsdXjjWVtdnObVb2+u0v8AWY8aMyP9oqMHF/7Wl4dOOkvSTipP/wBfLX0PZcAzx9Q0bSLcq2Cu4flf5lcn8XkKDVctvZNVPf8AKzjmu6lLJ1rJyrO+Rfbb19E5NxX0Wy+hoj0+3Ul+nvOMJP8Aub0NJvZ327r0e3m7bo+f4IXyj4hUxr7XUZNcv8vJz/7wiequ0jGyvCbR6tRzYYUuex1TtXwSnzWbxk/w9N+u/wDE/DomLh6DRfnZedRm5s6Z1Y9GNLzEnLvKT9F0W7aWyT23bCfhzlnsufvy/H4Y4Vf98N8dltj26lKC9mpSgv5SZ/LXOF9Ot1rJtyuIqYztyb5yjKibcZObbjvz+nb6HleDeI5YXFtGddvNRtm7du8oTTVj/b8W/wC1HteIOAMbN1SzO4b1TEWPlWSucbrOR1yk+aa22923s9tt9jHUudebzw/J4h5+E+BdMwtOzq827BtlB2Qi4f4TjL0e+y+4u/4T2Hh/xXpudwXXpOvTjVOFEcWVdkvKVsI9IShPddei6b77r2OScW6Nh4s6a9Kz451jjY7nVHaEHuuRRlu+bfrv19Pme70jw/0TN0XHlp+qqu9U1+cnKD3s2+Leqezj13Xfbp9TJ1nPtg468Hfs2nW5fDl0rYVQc50WbOXlr4m4zjtzbbb8rXp3b6Hqv/z9jxXBd1kPvW5tvM/ZRhBR/q/qf1ztdwNG4FeFXmrMujRdXXDnjOUpT5tt1Hfkgt/Xsl6s8X4Ica4+G7sHWbFVXfZG2u2fSMbOVRnGT/DulHZ9uj37ozn8tYr73DnDWiYfEdefTxBXZZXOybU78dKbkpKXNs/XmbPHeNuo42RxrTZpV1d8VhURlOmUbFzq217c0fXZr+KPXaj4XaI8yzJs1TyaJzlZyK2lKKb3ajN+nscp4vx8GviWyPDNrtxU6+WUt+j2XOuZ/eW+/X5mOOW9dv8AHbNtq4Gq+yWSr83LprnyNx5oeXY3Ftem6XT5GfAKxvgOxTbahm5EUn12XJXLZe3Vt/U+Z46axi3cG48MHJqtks2mXLXZCb28qxb7J/NB4E69iVcJZFOfk1UzhmWWONs41/BKutKS5n1Xwv8AgZPPh/rnnhJxZVpvErs1FPycil0TlFczh8SlGWy7rdbNL3+R1jiPw+0rWZTztIylG21Le6iUboSko8q569+j2SWyafQ5J4f6NpV+sZVHFOWqYxg66Jxn5anPna51Y1t0SWyffn+R1LhDgnTtL1h58dYjKEa7I8sp1VxcWvxyUvj279l1M2+d7HO+HuFrcPxcwsLWUpOGTC2Ml1jZFRlOuS3+cEtvRx+R1fxR4c07MyMb+0WprC8mFvJXKyqvm5nHmltPv2SOW+IXHdd3iLj52ifHDTvJhCT+HzXGcpz79ovmcd/r6nSOIMTR+IdMx7Y5ypnQpNNShGcFJLnhOuX+Vdfl0ez64a74tfn1/UNLo8KcnTsTU6Mt1Ydlda86qc5Pm3rSjF9dm0lsu0TwfhL+rXEn7pf/AB3lx3wlomDw/OOBqDyM7zK3GKnGz4d9ppxgtoLbd7t90XhL+rfEn7pf/wAXmb68OZERCtAxYMwoIiBLJCBkvsgxBnV7tRk0ZBNQMQZk0ERMwB9nhvh2zNvsrxb6KZVwU/8AqLPK5t3ttHo92fHBgnX48OjZTo0jhDKxKMqrJz9U5arHjy8yNGOt+aPN7tNr0+9+Xd84EDSIznjoXFubVLwm0Wmu2ErIW3SlWpJyiv8AE6uPp3X8TnZEEnE5z7YA2EhYMGvcWAAbexCBgNkTYvsZMKgaEGZNRnZb9jQPuaoW5lr3EAFR6rgziqvC0rVab6p2PUsJ48ZQaShLlsW8t+6+NdvY8qRk2dZIQMEwYsGIoIiJSyyJkZL7IMQZ1e7UZNGTJqBiDBNBMiZggEAFQMQYhkiIEAiIwDAWBggEASn2Mmn2MmFQCBk1A+4g+5qkAIAmomRMQAEACYMWDFNBERKWWRMjJfZBiDOr3ajJoyZNQMQYJoJkTMEAgAqBiDEMkRAgERGAYCwMEAgCU+xk0+xkwqAQMmoH3EH3NUgBAE1EyJiAAgATBiwYpoIiJSyyJkZL7IMQZ1e7UZNGTJqBiDBNBMiZggEAFQMQYhkiIEAiIwDAWBggEASn2Mmn2MmFQCBk1A+4g+5qkAIAmomRMQAEACYMWDFNBERKWWRMjJfZBkR1e7UZIgTUDIjJoJkRggIgFQMiEMkRAgERGAYERggIgSn2MiRhQBEZNQbCRksgRAmomRCABEATBkQpoIiJSyyIjJf/2Q==;" parent="1" vertex="1">
          <mxGeometry x="1230" y="1045" width="250" height="140" as="geometry" />
        </mxCell>
        <mxCell id="lCqg1MIeucwMHsoLbIJ3-17" value="" style="shape=image;imageAspect=0;aspect=fixed;verticalLabelPosition=bottom;verticalAlign=top;rounded=1;fontSize=36;image=http://www.nginx.com/wp-content/uploads/2018/08/NGINX-logo-rgb-large.png;" parent="1" vertex="1">
          <mxGeometry x="720" y="910" width="360" height="121.15" as="geometry" />
        </mxCell>
        <mxCell id="lCqg1MIeucwMHsoLbIJ3-18" value="Knowmax Admin UI Build" style="text;html=1;resizable=0;autosize=1;align=center;verticalAlign=middle;points=[];fillColor=none;strokeColor=none;rounded=0;fontSize=42;" parent="1" vertex="1">
          <mxGeometry x="650" y="1070" width="500" height="60" as="geometry" />
        </mxCell>
        <mxCell id="lCqg1MIeucwMHsoLbIJ3-19" value="Knowmax Client UI Build" style="text;html=1;resizable=0;autosize=1;align=center;verticalAlign=middle;points=[];fillColor=none;strokeColor=none;rounded=0;fontSize=42;" parent="1" vertex="1">
          <mxGeometry x="665" y="1200" width="490" height="60" as="geometry" />
        </mxCell>
        <mxCell id="lCqg1MIeucwMHsoLbIJ3-22" value="Apache Tika" style="text;html=1;resizable=0;autosize=1;align=center;verticalAlign=middle;points=[];fillColor=none;strokeColor=none;rounded=0;fontSize=42;" parent="1" vertex="1">
          <mxGeometry x="-350" y="1091.15" width="250" height="60" as="geometry" />
        </mxCell>
        <mxCell id="lCqg1MIeucwMHsoLbIJ3-31" style="edgeStyle=orthogonalEdgeStyle;shape=flexArrow;rounded=0;orthogonalLoop=1;jettySize=auto;html=1;fontSize=42;fillColor=#0066CC;" parent="1" source="lCqg1MIeucwMHsoLbIJ3-24" target="lCqg1MIeucwMHsoLbIJ3-30" edge="1">
          <mxGeometry relative="1" as="geometry" />
        </mxCell>
        <mxCell id="lCqg1MIeucwMHsoLbIJ3-24" value="" style="rounded=1;whiteSpace=wrap;html=1;fontSize=42;fillColor=none;" parent="1" vertex="1">
          <mxGeometry x="-660" y="680" width="900" height="355" as="geometry" />
        </mxCell>
        <mxCell id="lCqg1MIeucwMHsoLbIJ3-25" value="" style="shape=image;imageAspect=0;aspect=fixed;verticalLabelPosition=bottom;verticalAlign=top;rounded=1;fontSize=42;image=http://tika.apache.org/tika.png;" parent="1" vertex="1">
          <mxGeometry x="-605" y="740" width="340" height="116.44" as="geometry" />
        </mxCell>
        <mxCell id="lCqg1MIeucwMHsoLbIJ3-26" value="Apache Tika Server" style="text;html=1;resizable=0;autosize=1;align=center;verticalAlign=middle;points=[];fillColor=none;strokeColor=none;rounded=0;fontSize=42;" parent="1" vertex="1">
          <mxGeometry x="-610" y="920" width="390" height="60" as="geometry" />
        </mxCell>
        <mxCell id="lCqg1MIeucwMHsoLbIJ3-27" value="" style="shape=image;imageAspect=0;aspect=fixed;verticalLabelPosition=bottom;verticalAlign=top;rounded=1;fontSize=42;image=https://i.pinimg.com/564x/a1/9b/ca/a19bca516642b96366f9007c3ef3df1a.jpg;" parent="1" vertex="1">
          <mxGeometry x="-80" y="710" width="190" height="190" as="geometry" />
        </mxCell>
        <mxCell id="lCqg1MIeucwMHsoLbIJ3-28" value="Apache Tika Api" style="text;html=1;resizable=0;autosize=1;align=center;verticalAlign=middle;points=[];fillColor=none;strokeColor=none;rounded=0;fontSize=42;" parent="1" vertex="1">
          <mxGeometry x="-130" y="920" width="320" height="60" as="geometry" />
        </mxCell>
        <mxCell id="lCqg1MIeucwMHsoLbIJ3-42" style="edgeStyle=orthogonalEdgeStyle;shape=flexArrow;rounded=0;orthogonalLoop=1;jettySize=auto;html=1;exitX=1;exitY=0.5;exitDx=0;exitDy=0;entryX=-0.005;entryY=0.418;entryDx=0;entryDy=0;entryPerimeter=0;fontSize=47;fillColor=#0066CC;" parent="1" source="lCqg1MIeucwMHsoLbIJ3-30" target="PYnxVORSXo-nh4O1T2eK-74" edge="1">
          <mxGeometry relative="1" as="geometry" />
        </mxCell>
        <mxCell id="lCqg1MIeucwMHsoLbIJ3-30" value="" style="rounded=1;whiteSpace=wrap;html=1;fontSize=42;fillColor=none;" parent="1" vertex="1">
          <mxGeometry x="580" y="900" width="1010" height="400" as="geometry" />
        </mxCell>
        <mxCell id="lCqg1MIeucwMHsoLbIJ3-39" value="typesense server" style="text;html=1;resizable=0;autosize=1;align=center;verticalAlign=middle;points=[];fillColor=none;strokeColor=none;rounded=0;fontSize=42;" parent="1" vertex="1">
          <mxGeometry x="1210" y="1200" width="340" height="60" as="geometry" />
        </mxCell>
        <mxCell id="lCqg1MIeucwMHsoLbIJ3-40" value="Storage" style="text;html=1;resizable=0;autosize=1;align=center;verticalAlign=middle;points=[];fillColor=none;strokeColor=none;rounded=0;fontSize=42;" parent="1" vertex="1">
          <mxGeometry x="1990" y="990" width="170" height="60" as="geometry" />
        </mxCell>
        <mxCell id="lCqg1MIeucwMHsoLbIJ3-41" value="Node Server" style="text;html=1;resizable=0;autosize=1;align=center;verticalAlign=middle;points=[];fillColor=none;strokeColor=none;rounded=0;fontSize=47;" parent="1" vertex="1">
          <mxGeometry x="876.5" y="1335" width="290" height="70" as="geometry" />
        </mxCell>
        <mxCell id="kw-ZSxsW-5wrWV4nvGQg-1" value="" style="shape=image;verticalLabelPosition=bottom;labelBackgroundColor=default;verticalAlign=top;aspect=fixed;imageAspect=0;image=data:image/png,iVBORw0KGgoAAAANSUhEUgAAAFsAAABbCAYAAAAcNvmZAAAABmJLR0QA/wD/AP+gvaeTAAAYgklEQVR4nO2de3xV5ZX3v2ufS0LCVcJdFOSlXHMSlNaqY1W0Wh1rW2uQnAiDShKsrc7M2850Ok5NL3bGsZ23Y0VIgmApJEA61k5bdbzUS70iAjmHcC1euINcQgi5nHP2XvPH3ic5hJNkn8NB+3k/+X3gk73PXs961ll59rPWs9Z6nkAf+tCHPvShD33oQx/60IdMQz5tAXrDnMUbx4l4RoHm4ZE80DxUTBGaAQQ9Zpmyz6fW7t2Hjh96peKa2Kctc3f4i1L23BX1uWa7XIVyHWghGJeDZqXAokVgkyLviuo6i8jzteUzj5wzgVPEp67skkd3DtR+bUWoBoErgFSU2xtMhDfEkv82vdHa1XdfvD+DvFPGp6bsYHXoElTvB/k6kNPlsQXsBS4AQFgk6EpMb5NHoydaLZ/p62fmmDHL6zW8w1R1BKoTQababwTTAaMLzyjC06osqi0LvHquv18yfOLKDi7d9Dks+ReQv+7S/zGU3wLP+v3mC5GY935UKwC86rlwRfm03a77eDw0xPDqlRbcgshXUYZ2IXkXNf6xpnz6y2f/jdzjE1P2vMWbxsS8xv9DKUr4WAWesZSlsSGeZ+pmT4vEHwSrwr8G/TrIkZqy/GHp9nt1xcveMaPyZlmiCwVuATwJj5/1GPoPv1pQsDld/qngnCu7aO1aj69x0jdBfggMdD6OKaxAeaS2PLAtWbuSqtAWhSkKr9SWBa7JhCzBZaGLMPV+VMrptA0R4Ef79x/9t3PtyZxTZRdXh0eIWrUgicr6rSrf7U7JAKhKsDrcAmQLVK4qCyzMpFxzq+vHm2r8BPR2OnXwrirzBhDZVVU+M5rJ/uI4Z8ourgpdJVALjHI+2q/KvbXlgad7azvvsa1DY/7oEQCFB2vLAj88FzIGl4S+gLAc4SIAUSwVDCAqsMFSnhaTyppvBI5nor+uFjsjKKms/xuBF4krWvUpYkx3o2gA02uN6LhRDp0LGQEsNXeL0NjRlXTow6dwqQj/ipdtcyrDf52J/jKu7JLq+r9VkeWAF4gpcl9NecHXUxodhuYmXDdlWkawV6aGx/O2wsUAXo/B+UP7MWXsQCaM7E//bG+cdLgh+nSwOnzr2fbp7Z3EPYJVoQdU+ZFze1ItnV27MPBcqnwsjWWJ2ONAMNozKSNARYUaOzzhtcAIgPHD+1M4fgh+X+fYU+D9g81s2HUMS9WL6vJ5lQ3rU3FBuyJjI7u4sn4BdCj6OMI1tQsLUlY0gKhhdF6jmZAvETvHbC4CPgswbnh/PvuZoacpGmxjNmFkfy6d2OGiD4yK+cDZ9JsRZRcvqf+SiCx2bhstS66vKQ28ly4/MYzWjhvVfmcrX1dYdmgAjyEUjh/co5dwwfBchg2yvUSBYFnlel+6/aY9jcxZFh5rxKwr1JApmPyjwyui8NXVC/PXp8sXAEtOxYeBGvQ/K15JIPB5gNHn9SPL5+mNnLFDc/n4RDtAbpPHOx3YmE6/KSu7ZEnDVAzz3zWmN4GIWHQ4kIK0K3pV0dqGtxJXg6nCktbDgh8AVUamyycZKirU2EF4GEBulruvn5vd+QsxLKPr0t81UppGSqrDt6thvqfQNa4BgKIDBH7gazTfLK5cn5euULVllxwF4lPJ+enySYaKCrHAjoW3RS1XbRLp1OJUun27VnbJkvprVXUlkC0ijB/Rn1n5I/jK587nxktGc+nEoQzo1zGdXSKG/9m05zcRRdkNIDAhLR49QGETwMHGVizt3f7uO9ZpQhDjM+n260rZ85d/kK2GLAW8HkP4wtRhfG7iUIYNyibb72FgPx/jRvTnhhmjGH2eY8+Umack69vpCoaIHRwSCtLm0R1r9L8A2iIm2/ee7JH28Ik29h9rSRDL+sldT2wbkE6/rpQdjZy8FRgHEBg/hJFDkjsIHkO4bNIwcvz2HKfo/UVrG/zpCKZoyLkYWlJdn9GppL9GqxX2AYR2H2fHgZNJ/ctDJ9p4Y+vHoPF/AIxutyLfS6dfV8pWkS8D+H0GE4bn9kjr9Qj/Z3Q8uMcIT6M1Mx3BsHRd57V8IS0e3aCqfGaLR+QOIILCxl3HeGHjAbbuaWLPkRZ27G/i1YbDvBo+RCRmz9cCD4HsBFDlW3MX1w9PtV+Xc7ZOBRiS68fj6b3JsIGdmS0POi1VoQBipvd1IAqghlxTVrneV7R2be9+mkusLM1/RS39CnAc4PipCKGPjvPmto/Z+P5xDh5vjQ9lC5GKmtL874P1fad5rmUYKU+Rbg2kF8BjuCP3GAmOStyHSxXDGlpF5M8AqM5vFn/E1zi5JVgZ2hCsrv/e/OUbB6fFNwG1Cwuei0Y9U4HHcJSegHZUficYn68pzf8BIhodvL2uY3SLlhUtakhpDeBOe8IBgBMt7lznE6cS6FQ+SkUgsINEvhOT31bVKc5HcYfYjzADlYciUe/OTETj6u6ddrCmLPCt6OBtwyzTHK9wtaF6STTqyaspz79lVdn0dztoZ882Ef2pczvI6zVLUunLlVevymsC155qi3HgeCujujGQYFuRXQc7LHzUMK113RInwbzKhgtiYr6J2uHZHL+H8/Ny6Zdl0Nwa41BjG81tMUDzDOG3werw7JrS/KdS6SMZ6mbPNoEPnf/dor8VWdks/p8CAwzhTqDSbR+ukgcl1fXnq8r7gC8ny8O1gVHkZCWfPt/ZfpQPP262bwyerlkQ+JpbYVCV4NLwGyiXAUwZO5DpFwzGkAQxFXYd6ojGAZz0qmf6ivJpu8sq1+e0aPZENXQs6CgVGQ2MQHUgSDboIAWvQCyBXYsoR9XQY4YaRy3Rg6Afacx63xy6c4/zSzgNwcrQMmxFYxieiSsXTPuzm6/nOlMTrAw9hnAvQD+/h8JxQxg7LAdxFHGyNcrWvU18cKg5US9bY1HPrLp7px1000dJVfhrij4FMGnMQArHD+mWdvfhU7y140j8S+xWJYYwjszG6KMo74NuQmSjimyQqK7HYxQi1h9tEvlOTVn+T3tmY8N1bEQNBoljnlsjJm/tOMK6XQYDsj1EYxan2k8bABZgCEzx+azXiivXX+6mMknVugMR/F6D/At7tn8XDM8lvLuR5rYYChf0MGxMoMkZwe0IxwE/Si6AClkCQ4HsJG19CJNAJgG3iyp4sbDXABHAj1hfAjKrbFE7UobwPsr5gN80LRpPnRFf2KIWC8TD39llCzpRxPf0/OUfXPfknePbeunlswAjB2ef7tF0g7F5OWzd2+TIp++owTtqyRYx2GOYxr52Uw7VfWPqIUR6XZPPXVGfK63eoRFio8TgIlGZgB0qmAbk0/nLMJxCIBsqs255YtuA/757cs9LUVwqu2jZhmHEnBiFpb8y8FVaEpsndkrpQkVbEGOXWNRNPDD9xYoKsYrWrl3nb5ycYwet5IpI9ORS4I4eOxK7mCbb724M5A3MBmxlWwbfqy0t+OMZRPe6YsWv5hWcAk4Bu4F3Ep9dXfGyd9SYvKmgl4jFlYjOArkwLnWO1V4I/Km3Plx9K3/Md6miAqCG8cbK0qkHgId7alM3e7ZZtKhhjtdnvi5QAJSUVIaeWVUeqOm+lbSB5rRGzrBJSdEe7aTzWJ2J20zDqScJOf+XAwSrNs8BqxZALJmKC2W7W66rzui4NqINboWsu3das5rmV3GGnwq/mPPEhtFd6YJLNk4sqQqtQfU8gP3HWzDN3sOfCQGithyi3dehnANIW9YzOPESMewVdm9wpWwRxjiXp1bfNeNAKkKtvmfGh6r6f53b8wzL+0j8WdGihpElVaElGJ4GhdlxI2eaSsPeEz3yPdzYzr6j8dCn/KGqfGZLjw0yjFX3TWwSccosLGO8mzbuRjYd2ZJdboxNV9SWFyzFriMBZc4dSzYXBCtDRT6/uVmhHHDi3vpHwV5xbtvTxJY9J5LGm/d83MJrWw7FYxdRw5IfnUH0CUDtSlsQvbAXUsC9NzLaYX4sPbEA4bso7wKGZVj/A4zoCFoKr1kq/7S6LPDmHZX1F6vIawq54Y8a+eBQM2PzcsjN9hGJWhxsbOXwiU6nRpUHVi6cXp+2XGcBVfY7L+N5bujdLgCGAQjpG6Ga0sB7qvqGcxuveDouqvNrSgNXrS7LfxNgZXnBBhG9Dux4THNbjK17m1j/56OEPjp+mqIBDBFXo+pcwKAjRdb96ut0eleIj8G082/B6lCZGHJZAsddIhpYVV7wy660q0oL3pa2fpMFfgjaNZB1Qi2qgQabjX6juDrcs0t5jqAQLyBylf5zOY1IDBRxyTQR85d/kB2NnKxWtX1sFVQUUSG7ZkFgH6XJ2626b2IT8CDwYMmjOwda/drGqRE9Et+qcXtleIJH9D1gkKg+XlwdDtWW5odSle/soKYT8XBlx9wmD0yHY0qx6aK1Df5ItKlOJb6YkSMC1QACY4LVW1zlF1fdN7GptjQ/lLgnZk15/i5B7rTFYoCoPje3ut6VV5A5GPG0lavYs9tpJM5sYI9UCbjx0Z1Z/hPmb0Futj/RTZaXi1HP4k4q6zq3/JJhVVn+b1T1X5zbUabKC8XV4RE9NsooNK4PV0WjbpW9z/l5xoIkGYrWNviHZLc+pcqXnI82EJNZq+/K31NTOrUebP9U0Ktd9t8tassLHhL4hXM7QdDfBx8PuTJYZw9xamPUlZfmTtnK+87VmB7pHHgbzceAm5zGm7wR3/UdJcMiCvquzRZXK6/esKo0/36QFY6sM/HyeqYz8kkh6tS0uMtGuVtBIh84lwPmLd7Uo8KLK0PlQofZ2+KN+K9b8c0pRxNpVNjuXF44f/kHyUKbqUFEo4ONUiBebD9VLXn19spwxgt84pi/fOPghF1ou9y0caVsC+1gZno8M7qjK14SukyE/3Rum0yR27oqGsBQiSvbaI01Z8So1c2eFokO3nYbageKEC7yGvr6nKrw5cnoSx7dObDk0Z2ubVBXxGLezjCryBY3bdzlIL2xdWLapBZ6MfD7rjRlletzmoVV2LuwLEsluKYsf2syfhZ6TJxAiFclY1WqdbNnm6jeXVK1+YiKfkeVkQb6arAq9EBNWeDhOUs3zRA17hfli0rraIBgVeiwwEsiunhlacEZkbt5izeNiYkxQQwZquhJAFNkX8yyLu9I16nhqjzafVqsKrwDdCLwak1Z4AzDFqwK/Qz4e4fpD1eVBR7sSmPPo/IVy9QviyE3OB//uL9G/jXTgaRgVf39II8QXxuobkdkIj2/zU8ahuch04pdLxi3gF7JmbuPARCw1ObV2l8jg9zsMHOt7OKqUJUzF0eyPf68ZQmZieLqcEBU1wM+lO3H2/sVPHvfxI7tGSWP7hyoWa2POEnSZAujE6APfmZ/4BdOlWlGUFy56a9EjDUkeFGGCGOG9uO8AX5QaDwVZe/RFkzLWZcIaq/f3EHhUG1ZwFVZs+vkqKG84lz6W8326xOfiWolthItxVqQqOiiRQ0jNat1HUKZQ4PXI3hPT3sNAvn5jlGhmrOp7O+K2vLC19XiZ/H7LJ+HGy8ZzeWThzF5zCAmnz+Iz0/K46aZY5ysDyQo+jiqa1T1AdBi4IvAFwVuUmdhBiDIarfyuM5BRoj8wYe/BcgRZC7wXwDBqk03QDw/Kctqywpfj7e5uuJlr89v/g5lEkDewCzyLxzM8IHZIKCq7D3aSujD43YtiMjtzfj2AN9xK1dPuLriZa8YfBsgJ8vLDYWjztg7A3ZtylXThvNi/UGnEEnaom3RSXX3XfxxMr7BqvAcZ4VuiViukr2QwsiuK595AviNc3tjR7G7GPGKziji+XFim1Gj8+5BmQlw/tB+zMofwfBB2Z07FUQYm5fDFwtHMTg3PqDl7+curZ/uVq6eMHr0kGtx9mLmXzg4qaLj8HqEwLh4Rl+zvVmerySjs8ve9DYAhTdWlRbsdStPSjUWKhKP0PnF8JUVLwldhuJUmOqKmgVTT3PuBf0G2K/v5ybmddSYdIXfa3DZpGHx54ZlyTdTkat7GJ+15YAx5yW1c6dh1JDOrL4YxqXJaCIRzx04RlNgWUrSpEI8ad/0l+IhT0G+ZRj8rfPIxLJOSwA7K7jJABcOz8Xn7bmrgTk+hju7shSuTUWu7mEvpz0eweft3eaJSOfoV87YpuLYk79zqI/4fQNcz9eQorIrKsRC7ay6KiMVnFdNXqxZOGNnIq1anonx6yG57mzekNyOUuOMLHTi50jFLCVm9h4FtVRpdYqNVPXmYFX4l3dUh6+uqFADoNnImhff547o4t7rYE5HyqVa0SHeJ+gsPswCUNE1XelUrA4XzsW2FadNB6GievaHGCjvOT/Zd6x3N/7g8U7dieAFnWepvrxzTHhfcWXoCVQfch43RcXz81TFSVnZdbOnRYTTEqxmltf8TVc6n2l1FBsePeluR/TRJieSq+kllrvCyLaex8mbhj9sJBrr3oU3LSX0oZ31EzBB38ZxOVQZKcJdxNN5Iv9Rt2BayvnYtIoQ9+0/skJQZ6iIxCLGRV1pVtxTuE9gK8DuI6do66Xw5ujJdo42OSNLeCEdubrCqXJ6FuBUe4xXNh+mJYkcbVGT17YcSqw/f7ymrOAyU2Uiov8MGk4gj/S32h85g4kLpKXsVyquicUsnYtigRom8ssbH915xqllltpBqWhMeXPbEaKx5IP1VLvJW9uPxHNLMVPk8XTk6oo5izeOw96zCcCx5naeeW8/72w/ws79J9lx4CTrdhzlD+v3cbjRefuUjbka+S7Y2aDoIO9P7Uot57FYC9MNLaRdXrtmYeFTKvowgAjTz8tu+4+uNLEh25aCnVH/uKmN5zft58NDzUScTZwt7Sbb9zXx/Kb9nGqzS6ZF5OE1pckDWKnC8HgeB+LO87sApmnx4cen2PD+MTbuOsYHh5s7jafwEibXJirTeyL2E5xDBURZWVtauDxdec7KCN346M6swVmt60WwFyEiC2pK859IpClatmGYN+Z9wan36w1PfmZ//t2ZiI8Eq8O3ovZ+R4G1q8oCtxcvqf+yGHIfcBWdMRpT4B1L9LHaBYHVibaipDp8u6rW2izY7feZBU/eOSPtco6ztvjFlaHJIryJXTvRrqI3da0mnbuiPjfWKj8W4R6SH5J4AKGipjRQdbbygL0/ffuocL0zCE56TWvKinsK46k9rq542Tv6gqEXaMzqZ7Tl7nEy+aehZOnmK9SyXsQuFW6zLLnybA9AyMgZUcXV9bNE5Tns0dKsFtfXLgy81ZVu3mNbh0azoreIpfchUghYFnLbwf1HfpfJk8eKq+q/LsivAZxtdT9Ipf0dSzYXWB7rJScTo4jOryktWHG2cmXsQK5gdfhuVJc6t41iGDevWjD9jaS0VfWvg1yhyuba8kB+pmTolCX0Isq1QBMxxqVyZJJ9yKPxHPEqJ9F/rikt+Ekm5MrY/hNnrv4utm86WC3rheLK0FeTU8sUAEFdlx+7xZxl4bEo12ALsiYVRRcvqf8SlvECjqJV9GeZUjRk+ECumrLAw6rcg72PpZ8Ivw5W138vvtyFjpiJU4goGVe2x9RbcL6XR/RXbtsFq8LfFkN+T7w2RvhRbWlB+gcdJEHGTz+rLQ9UKhLELuzxoPLQjtGbn4nv9bbU6EjAWsiGTPdvKfHExrH2Qdvf7I1+7uL64cVVoadAH8E+OjQmwjdrSgPf761tqjgn5/rVluWvFcOYhb0/BdAbTI/RUFJZ/zeiGt/0b2X7Y0nn9LOBYO+hRPWVZHsYE1FSXX+b6ZGwQHyv5jGwbl5VGliUabngHCkbYNWC6W9EDc8M7Ug4aJ6KPIkwH0AhfDY+azI4W0jsQ3JFuj3Hqbg6HAhWhV5SlTpguCPPnyyvFNaUFf5PJmVKxDlTNkDdgmnHassCtwpyD5213bkAAgPnLAmndzxGN5BYZ4xG0TNWocHq0CXByvrVoroBmOV83CIq344N3nbN6rvy92RSnjPkO5fME1FcuT5PxP8I2CM7QYR1oIs92VrnBI7SRkl1/W3OaEUtLq9dGHiraFFDf58/dquq3CmQWIKhIE/h1X+ouSvwfjcsM4pP4bDyjUVqGd8S5ApOf7NaUXlRhKdjyqtryvNdlXSdxjvB17eU7xsG+Sg34bxNCXheRB9cVVrwdvrfJHV8asfwO8Xs9wJ3AYOSkBxCZZ0a1g5DjT+byh6vYTVheprEa5qmShZieQxLRpr2CWnni8rNCN0tklpAfm0Z5s9XLyhM61y+s8Wn/gcmihY19Pf5rK8JerPCDSRXfLpoB/6oqk8Z7Tlrk8VAPkl86spORFnlet9Jw3elqFwDTEcJIIzHpZwKHxuiLaqyHeE/sw3/n5a52FP+SeEvStnJULSooX+WRyfg0SEWOgh0kH12CCh6UpAThmnsM6Vt31/S36TpQx/60Ic+9KEPfehDH/rQh//v8L/MsrP5Wh+LcgAAAABJRU5ErkJggg==;" parent="1" vertex="1">
          <mxGeometry x="-1340" y="-360" width="250" height="250" as="geometry" />
        </mxCell>
        <mxCell id="JiZBobh1F2u_1B55ugBq-6" style="edgeStyle=orthogonalEdgeStyle;rounded=0;jumpSize=16;orthogonalLoop=1;jettySize=auto;html=1;strokeWidth=18;startSize=16;" edge="1" parent="1" source="JiZBobh1F2u_1B55ugBq-1">
          <mxGeometry relative="1" as="geometry">
            <mxPoint x="-360" y="345" as="targetPoint" />
          </mxGeometry>
        </mxCell>
        <mxCell id="JiZBobh1F2u_1B55ugBq-1" value="" style="shape=image;verticalLabelPosition=bottom;labelBackgroundColor=default;verticalAlign=top;aspect=fixed;imageAspect=0;image=data:image/png,iVBORw0KGgoAAAANSUhEUgAAADAAAAAwCAYAAABXAvmHAAAABmJLR0QA/wD/AP+gvaeTAAAEbklEQVRoge2Yv47kRBDGf+VbIQLESiAhHXez4SZsRkTCC4yIeYPNSXiAy+4NmBcgJCUkJNkQNkBkswiRHBuR7NhF4G53VXXbFsfq4CSXZHnabo+/r76v+o9hiy222GKLfxGSf+z3+z1wAJ6pKgCqiv29dn5Dfe9U9frm5uZ7gLOJicg3+09fPHv6/iUd0KnQKXSJpQCihjGg+SzjbwUGgW9//JrfXt26TD398BO++PwlvUAP41k0neE0HcpJ4MH8Pgk8oJw6+PP3n57/+t1XB+DCEQCef3R+iWZUKIgUlAmobVvwmZACX372kkFgSIR6NJ1ztnwSwl9WbRvvfXwFsMvts1YnDYd9r0rdt/WMe74BWEWbwGevTSr7Hmetzu6Q0TpLWbF9FS2Wyu0ZcAjNe/W1mmyOzgOpX55tsPaioQE2JmJWHZPdomhNvJWEhgKKiqA6gupUGRBEShFXJAzZKvupPd2bIRLvxQTZfvMEhBF4ancps6I6JkqE8LwhHYDaDJp7431dJRJVt/8zS2AASFlXEQZS1iUPo1oTiC8SC9QAl5pIvjZQH06VQGieQLLJIIAqEqwjCX0mUUkdrJRBDo6Iz36xlr1u/a+m7zgcryrwRNvWEYs6h1NAq6wPjohWilTZt89EVVYtlCtUoGtYRzAypNw7FZbAh+u+nxqgWqniyC4qECacDl8DY8J9DqKNJnARvGiTSNWOdWKJSRlgmgT6zFyhS+eigiURwFsbhSLO4Hupgffxnpl3JsJCpeaCAgoqEyBpHK2IE1VRQYMKBnwC2WPbc/43ZIIDvAJpFBkHIfHZlxUChoQt1jgauZVout4nYIVMAdyb59YVSC/sKETGQ2YV8EWsq7VgwfcWvAVMIkq8pys1kLJceV+08n+TgFXBZF9zBhvgewuQYhe7X7AW65cU6Kfs19b5pwTa2VejQgHfTwRLu5AIFlsicJJx/O9kvoDF1NC0mrQEggq58KpMBvDT7gw4Me7G+khCzKaorcDo/IEwkWWcSRoxmScBtiTKWK5OhclG1iYBvKsR2za2mlcA6JLfx71wKd5spxituWBIS4pqCEXdSJRtNWW+ApuUwqswT0DKJn48a7BQezkN7QWan9D8ZJYzPwTweRNfZZ5iuwUCSocgsQ6m7GuiEbKfLrYI6IyNMiFrkwK8fJHoA5lTSGBDgbaFLPAY0zrdeL85F1Bm58omJvO2gO2nlnx/hUDbQp6A16A1hPpirpcVLrNgCKgBHogmMgsElC4tIaYPWmbkKdDLn6zNA/bDgLdRLFZvI6uG/eiV56oFBdpLCKtcrIGawMxaKBMI66CWjWor6UTinTkCf736hXc/uDTFq9VM3IrWpsbtvDALNAvcEgqjkSXzYMDr3c/u3Y7AHz+8GIH8zz7uosoZ8CRfM5jlcDjEbeZrx/F45Pb2lvv7+wqkiHB+fs7V1RUXFxeP9cr2t9HXjd1ux263W+/4iNEBd2/0jY8bx05Ernk7SRxV9fq/BrHFFlts8ZbH351enife6/9zAAAAAElFTkSuQmCC;" vertex="1" parent="1">
          <mxGeometry x="-1350" y="230" width="230" height="230" as="geometry" />
        </mxCell>
        <mxCell id="JiZBobh1F2u_1B55ugBq-2" value="" style="endArrow=classic;html=1;rounded=0;startArrow=none;" edge="1" parent="1" source="JiZBobh1F2u_1B55ugBq-7">
          <mxGeometry width="50" height="50" relative="1" as="geometry">
            <mxPoint x="860" y="370" as="sourcePoint" />
            <mxPoint x="910" y="320" as="targetPoint" />
          </mxGeometry>
        </mxCell>
        <mxCell id="JiZBobh1F2u_1B55ugBq-4" value="&lt;font style=&quot;font-size: 58px;&quot;&gt;Auth Gateway (Keycloak)&lt;/font&gt;" style="text;html=1;resizable=0;autosize=1;align=center;verticalAlign=middle;points=[];fillColor=none;strokeColor=none;" vertex="1" parent="1">
          <mxGeometry x="70" y="430" width="680" height="80" as="geometry" />
        </mxCell>
        <mxCell id="JiZBobh1F2u_1B55ugBq-8" value="&lt;font style=&quot;font-size: 58px;&quot;&gt;Request&amp;nbsp; &amp;nbsp; from client&lt;/font&gt;" style="text;html=1;resizable=0;autosize=1;align=center;verticalAlign=middle;points=[];fillColor=none;strokeColor=none;" vertex="1" parent="1">
          <mxGeometry x="-1025" y="250" width="570" height="80" as="geometry" />
        </mxCell>
        <mxCell id="JiZBobh1F2u_1B55ugBq-9" value="Login&amp;nbsp; &amp;nbsp;Request" style="text;html=1;resizable=0;autosize=1;align=center;verticalAlign=middle;points=[];fillColor=none;strokeColor=none;fontSize=67;rotation=0;strokeWidth=8;" vertex="1" parent="1">
          <mxGeometry x="-965" y="370" width="490" height="90" as="geometry" />
        </mxCell>
        <mxCell id="JiZBobh1F2u_1B55ugBq-14" value="&lt;span style=&quot;font-size: 58px;&quot;&gt;Client UI/Admin UI&lt;/span&gt;" style="text;html=1;resizable=0;autosize=1;align=center;verticalAlign=middle;points=[];fillColor=none;strokeColor=none;" vertex="1" parent="1">
          <mxGeometry x="-1480" y="470" width="500" height="80" as="geometry" />
        </mxCell>
        <mxCell id="JiZBobh1F2u_1B55ugBq-25" style="edgeStyle=orthogonalEdgeStyle;rounded=0;jumpSize=16;orthogonalLoop=1;jettySize=auto;html=1;strokeWidth=18;fontSize=63;startSize=16;" edge="1" parent="1" source="JiZBobh1F2u_1B55ugBq-15">
          <mxGeometry relative="1" as="geometry">
            <mxPoint x="390" y="240" as="targetPoint" />
          </mxGeometry>
        </mxCell>
        <mxCell id="JiZBobh1F2u_1B55ugBq-15" value="" style="shape=image;verticalLabelPosition=bottom;labelBackgroundColor=default;verticalAlign=top;aspect=fixed;imageAspect=0;image=data:image/png,iVBORw0KGgoAAAANSUhEUgAAAEAAAABACAYAAACqaXHeAAAABmJLR0QA/wD/AP+gvaeTAAAFeklEQVR4nO2aX0xTZxTAf+XfJAWcS6ajCdkiIE8kKAkmTiBB2eYghGSPWshMGqNZ4l7MTKjOPwEqWTIflhYz6YxkZBEJCo8wJq1TYDE++GCqPixEK9SgpmWmWtq7h0ubC9be/rm3Ur2/5Cbfvfec75zv9Nz7nft9BQ0NDQ0NDQ0NDQCqASfgB4QMOvyAA9iW6uBfrYHBpHK8TDQIOknbCexsa2vDbDZTUFCQSD9vFZ/PR2dnJxcvXgQxE+rj1ZUG4CWQ53K5KCwsVNhF9fH5fFRUVIA4jnXx6uVI2nmA4oN/8OAB58+fZ3Jykrm5OQCKi4upr6/HZDKxefNmRexI/P4gET1pBggAbrdbEYcAbDYb3d3dLC0tRb2fk5NDR0cHBw4cUMSewWAIN3Wx5KRkKWI5ClarldOnTxMKhWhvb2d8fJzZ2VlmZ2cZGxvDaDQSDAY5efIkvb29arkhiyoZcP/+fXbv3k0oFMJms9Hc3BxVbmRkhEOHDpGdnc3ExASlpaUp2W1tbWVmZsYJ1MWro0oG2O12AoEA+/bte+PgAVpaWti7dy+BQAC73Z6y3StXrkACgweVAjA5OQmA0WiUlQ3LXLt2TQ1XZMmRF0mchw8fAlBeXi4ruzx1RXRiEQgEOHPmDENDQ8zPz79JTIjRhRvoB44jFn3qBCD81s/NzZWVDcsEAgFZ2Z6eHqxWayquGYAflttHQaUAqMXly5cBMWuSqVQXFxdxuVwARtQKQEtLS6QtmZfjorW1Nfwii0o47ZMt0yV6UQsGRabBRAe9mlj2U+17FTpQ8RHw396SkPy6rfdU8iQ2aXsHjPy1yHedYgpbj22iuT75r02v15u0blFR0Ypz1Urh1Rzu9uBZCOJZCHK426OancHBQQYHB+OWz6hZQI6uri4sFgsAd+7c4dSpU7I6acuA3h83kZUFWVlgO75J8f47OjqwWCzk5ujIzdFx9uxZzGazrF7aAvDl53pCIQiF4IsdesX7DxdIf/xkwHpMDHB/f7+sXtoCoDbBYBCApno98wtiJbpr1y5ZvbS+A3ZszUcX91JF8jzyiAEoKyuTlU1rBkzYS/izr0R1O3tqxUfs6tWrsrKqZcDbKmwANn4kDuv58+eysopnQE1NTdK627dvV8SH4XEfAE1NTbKyimdArI+ZdOH9LwRASYn84/bOzAJSairFbYGpqSlZ2dcyQOEvrpSpqamRzSpBWLkItKMqH4Dp6WkEQUAXY+pZ8xnw7NkzRkdHGR0djXo/FApx8OBBAPT54nA+NeSiz8/i6dOnmEym1wIk5bUMOHfunBJ+p42BgQEGBgb4sDCb3zo/iVz/vaeYbzvmuHTpErW1tbS3t0fVl2bAKwC/36+qw0rT19cHwM9HP47M/wBf7dTzi3njCploSAMwDTA0NJRRQbh79y4ATVHWF/bUiteW1wGjIn0EvtfpdFMOhyPX4XAo6mQqlJWVceTIkTfeX79+PS9evODxkyWK9Hkr7j1+shSRiZdtwCRr6x8i0l9DAASv1xs5TCaTAAhf1+kF70y54L+9RfDf3iL4/ikXmusLBEAwGo0ReUm/QAK7qCkgAJw4cSJyQdJO1L4AK5fE3G43dXV1eDweKj7L45vGQgQEhsYWuffvKzZs2MD169cjRZFkSUzdRdF0YTAYGB4eZv/+/bhcLrp+XYjcKy0t5cKFCzErwowPAEBlZSU3btzA6XRy8+ZNdDodVVVVNDY2yu5OvRMBAHGLraGhgYaGhoT0MjIAq5e2U2HNl8Jqk5EZUF1dnbTurVu3Vpy/9xmQaQFwg7jNnQwSPUX+Cvc36akEnRKbFoX67FYiAM40BUBaCuctB+FRkn09WtZf+dGgoaGhoaGhofE+8j+cHJFa6thpDwAAAABJRU5ErkJggg==;fontSize=64;" vertex="1" parent="1">
          <mxGeometry x="250" y="-340" width="280" height="280" as="geometry" />
        </mxCell>
        <mxCell id="JiZBobh1F2u_1B55ugBq-23" style="edgeStyle=orthogonalEdgeStyle;rounded=0;jumpSize=16;orthogonalLoop=1;jettySize=auto;html=1;strokeWidth=18;fontSize=63;startSize=16;" edge="1" parent="1" source="PYnxVORSXo-nh4O1T2eK-23">
          <mxGeometry relative="1" as="geometry">
            <mxPoint x="270" y="350" as="targetPoint" />
          </mxGeometry>
        </mxCell>
        <mxCell id="PYnxVORSXo-nh4O1T2eK-23" value="" style="shape=image;imageAspect=0;aspect=fixed;verticalLabelPosition=bottom;verticalAlign=top;fontSize=27;image=data:image/png,iVBORw0KGgoAAAANSUhEUgAAAOEAAADhCAMAAAAJbSJIAAAA21BMVEX1hTb///+dUCX1fiP83Mn82cb1gSv1hDP1fyf5to/6x6n0fBz5hzf/+/iYTST1hjf97uX+9vD2jkf2lVP71MGXQACWPgCcTSD0ehXsgDT+9O6aShqXQwWZRhH959r5vJn7zbP4sIW0XimsWSjGaS33n2f6xaf4qXn2mFv84tP1ij/adTHr3df3n2j3o3D5upb0dQDcxrzTtqrNbS6vdVnheTLGn43n19D4q3zodh/SaBa6inTWu6+kVCakXTigVi2rbU7s0cTGXxCmSwO9k4CzWR3MqpumY0C1gGeeX9o6AAAPfUlEQVR4nO2de1ujOBSHC1hAgd7pHVtrvfSiTr3vqqO766rf/xNtoNwSQglJCM4+8/vLZ4YKr+fknJyTkFak/7sqZT9A4fpN+OvrN+GvL2GEzUbjcK8DVK3u7R02Gk1RNy6asLmYTo5OlrqiGIahBPJ+1tqX+wfVQ6vgJyiQsNG5Olkahq6qmlbBSNNUVVcMpXU56TSKe4xiCK3FpN03lBQ0lFRVFaPfniyKsWYBhIvJuQ7gCNhgTkU/nyz4Pw5nQqv6qBh6XrqQUjfUoypnU/IktKaXwHiUdIFURb3s8ITkR7h4VJjxAkjlkZ+7ciK0TusGHzwf0qifcsqYXAgPjxTqsZcmMCbPDnk8HAfCapur+SKpRrv6DQinLYO3+SJpRmtaMuFUU4rj8xiVOiMjE2F1WTDflnHJ5KsMhIftAv0TYjTaDMmDmtB6FMS3Zbwciiac6sXEzzSpxqlQwkZbEcrnSmnRpUcqwolAB42kGRNBhI2WeANuRWXG/IQHpRhwKxoz5iW0TozS+Fwp7bxBNSfhQhMbQpNS9b0iCSf98jw0kNbP56m5CC/LCjGwlMuCCJutsj00kNrKUR2TEx7mbp8VJ00lTxvEhHslJomkNKPDm3DaLxsKUf+AL+FpuVkQJ9LkT0Y4+X6AAPGKH+G+UEBVyZIf0419XoRiAfVOM0sdJQciAaFYwIqS3ZXZC2YeJI6aTSh6DOYhrBBU/pmEU9FBJhdhxcjsNWYRVoXnwXyElX5WqZFB2BCfJnISVoyMFfLdhFZd/FQtL6FW373auJuwXUI1kZeworbpCY908YD5CSv6Iy2h8DBKSbg7oO4gPCynnKAgrPR3lIvphGVEGVpCbUlDeFlSz4KGsKKe5ScsZxBWKAl3DMU0wmEZYdQTHWFFSesUpxGel9ZXoyRUz/MRluajwN/oCFP9FE/YFO+jmqbq7l5MfZm9oo0l1FT87A1PKC6O+ptM+2rr4uh0umg0JYvShmnxFEu4KN5H/d2z6vL8aDLdi28UPqElrBhY62MJl4Xneq3lgjUw8W/vBzUhPu/jCA+KX4BJL3k02kgDpOC6xBhCS8QChXqBf/grnTJbuMIGGwzhvpBAig/uDYM2H3rSMb23JGFTUEmBnYSca0yElX7SiEnCI0GZAjcJcScaTITqUTbhUNRsRv2RCO6W+/YCEyHGMxKEgkyoGefJHtmje282QjXR6EcJm2JMqKqYQLOdaLARVgx0JKKEExGBVOsf4dJhS+NAqKPLigihkFyYsnnrdPvcjISatptwWvx0RjXw69ND/9aMhBUF8X+EsFW0CTXjMmWnyIUf4pTsPU87CbXWLsLCiwpdS7NQNbi1tmxlaXdlYMBjACYsOFVoyRXNSVAPRL1LLVs776LCLXCYsNBAikmBi6WibKF5ToYVKFBDhJ0i40wyBVpn7kZAr1/d4DkZhmMNRHhS5Nsvj2gKnKremPAiQ5vnnbWTNMJmcSZUWugk9DDcDK/v805S0OQ0Thi/j6YSieyOqpLYULAf2yanVDkHOH2aQhhzUu1kn0hEbzInU2CnDgUW3gEOctMYoRUb7XpKexUVwbPpdTSFN06K3ucYL4RjhPFIqpPt/LMyCbV+MgUW9LpiTEpsb2aM8DF2Y06E+BRYLJ2reKkfI4zPhfgQ4lKgkI248c5pRAhtneFBiKkCp5ze9s5UbJNNRDiNPy0HwmQVeCjufbBYpIwIz+J/XmZCXAoU+LJGbJUmIoSqe0ZCXArURK7YaWqScAjNfdkIkylwWHgKRNQPJ24hYRUaIyyEuCqw+BSIKOqFhIQT6BnoCXEpsIQXFqOWW0h4AXkRNaGqoq96NM9yRhjWGn/7S8K1rZBwyYMQlwLzvhKttdpZIuiXRTk/ILTgHhQdodLmkAIJem0Lgl8a9r4DwgU7oZpcgt2niKCs/dKAMPhjB4RIiyY/odbnlAI5EYblRUB4Cj9MbkJ9mTsFpvwvJ0I9mFMFhEinNCchTRWopRwbwokwLKACQqTNlosQWwVmOqjR2DvHWZkTYdjJCAiX9ISqjqZAoirQLXAW5/2EpXkRBukiIET+5OSEmpFMgURztG0Jd3iJXsyJsKLDhBbyGWJC+iowKFIbjzAjL8Kgt+8TDikJf6BVoEVcBUZl+HBfibkQN8IhRIi+/UNKiEaYHCkw/jZPc6KHx6HxIgx+v094SEeIqHH+g6xV7qoP/XWs0+BMLW6EhxAhOtOjI2TTdJsguXmpv1LyjQiBj7tnv3Ej9CdZFfxnyiEEz3FuMOy+3EVY/SaE7iSAF6H/e3xCdPW3PEKpyrgXIyT0Z1rfzYbTJf0u6J02/B7j0DpVFa2gSPMdYmnzStWZd1+mEvKx4WGnSi7ksODGkaFD3sVMCOfDv/jYcGr0Mw+1CPQjPqdpnIXTb26Ef/EgtBIT7yPi5mhsXgqVUAURbmhrC/r+YUi4OIfKp29GqGvJ80UOyBYpfMJEK4Mb4QYmpK7xcX38S5I2qUfYSZ5CzK3GRwj/oCasaMYJukF+r55dJgJC7CnLvAj/QAj/NKkJgRmTx+Blr6epE3w7kROh+ccDRPjARAgeK/FeZAPbKoQQ8f/Pi/BPmHD9NxthReufoU39Kd0pkrwI/17zJXTbpuhnrCOape2CCIf/MBNiF9coVn95Ef4D99qsMfz/dOuHmAXSg9xnRuvTRpamJA29MdwvlZwBB0J3L34yOebdRqMbWSIBHDgSTPh6B7kp9To+ZpVmL3uVhr/Mu1eE8PaGD6H7TkwyOYo/uta8uUUI3//lRYhbLc1Ojrxl/vuOEH44/AiBqyaSY4d0Tzgnmc4HQrgZQ6GGdeeeir5flady5KHBeIMQrruruBHZd19y2XlCLXPVXSOEVnfOl9BdOkUvPxC1gbZizrvofhrp9YUzoTu1pqscOch8CZJFRHjbiw9EPvu8KStHDhr0gmQREX44N7EreL2NgKkcr0SYcRWG0ohwM57F3JTb+xblJEdzFobS2B7hbi3+XNwIcZUjmhz5A9e6yT3CklOD8kWdSES3y6ocNd7n4ZirmiMlCb9GUL4g2MdKtJXV087KUdMsrq8fuk46esIQXjsy19tAwuwrCpOjUU1slGCV7FxjCNc27KachUuO3jzOezGZ65k4wEntNYZQepVnBRKmVY7AR90feZ7lYM56rxKO8GlUI4sctMJUjld9/6TjDkc/rddiwzBOuBnXboo0YgX7tmUAfREmEIIXdHfexLypRdkQfoe0K78UTOhWjimHfIXv7GiXme/mnu1ENF/kLv4dUjA1rd0VjYjb777VaXDyB+NeffOuFk1KEcJnp9hY4yuZHLdq8dnXZs7k8XMK4dCWa4Mdn+Ulrb+Pc9VFnwvhoCbbae/ju246F2BEXFvV1XY3PSOhOYedFCZ8Hsu19M/yFKZyDA44YrVhTY5HUoTQAoRijOglx4SreufCshECE8pj6GL49Jb3kVzg5BRR8rw298g9VhvKcjzdJwjXtjgjKpgzDt1DXJgIXRPG5qRJQumzJ2wkIsc5bQVm4Gw2rMm9T/hihPBZ2EjEfy2FVWfaueeNwmf4YvREOjAQheTExMFxvqoGCyHIhb0ecjFK+OHIIiY2Wup3Ulz06QnBdEaOmmwphJYNjFj87NQdhxf7p51FA00ZQ/odtGBGKst21rmJ0jswYuElhoeoqbqiGEa9femfc73Vafa34qURvgATvqMXJwibY1lcxvBJPVRFX54fXQGrUp5Y7oUZeEqKJ/SMKCTYJOSyKgq1l4IwgzEhhhAUwrJ8LNCIiGhjqXkMnrtLco6wdO8aseh+RrooCc0b14T3yYtx53kDwpL81BUloeuj8ojsPG/pelymn9IRej46vsZcjD1X/2dPcDyNi4rQi6PxLmkG4YMbbGp3ZfBRErq5XrYfiAmlJzA9FVgpQqIidB8XqQt3E1ruSKyVMxQpCL1BKDt5vqNEerblsoZifkJvEMr2M/7iFELp1vXTQhejuBF6mVAe3aZcnEY4dP1UTJXBSOhVFCBT5P2+J2nj+qksD4Qj5iQ0B95z2pu0i1MJpS93aiO/iAbMbcMXL8p8pV6cTii99koJqDkJPUB8rs8kXHflMhBzEZrH3iDsrtMv3kEoXXtDsSZiPSpOmONNZ3O2BcTNR0kIpSenBER10slScHqeD4gpe0kJpc9RGYik363uA44+dzLsJrR6vTIclUz+GOzJLN8H7EcbEG7KxsFoC4guU+Ql3BZSHuL3MqMZAHaxJVMOQunZR3wRP7vZIXPw4gOmzLdzEEofW0RZLmGOmibzzn+mLtrDpyGU7rcz1HIqDazM1daAso3prVEQSu8BYlmtG0TbepAQkIgwQvwOITWMMbK9M9PnIpTu/bFYK38whkNQ7pJYkJQwCjdle2rooSRBJg9hkDRcTy0xbZiD4xAwM03kJJQ23V7AWNqaxrYj403V8L1RJkLpwQkRZ6WYMWbA3ihjqkZFKA1/OnJkRtGMZmRA2fmZ1nZiI5SkLztEfBEcVM27lxDQTm/KsBKCkNoLGWd1cYxmfRbykWYJOkIwGEchYm0uqN4wKze1EHDkEMcYKkKp+TYO/5g1WcRwBANQjgw4fkv5ckFuhMBT7V6McVWwHWG+nk2Y5pkIpXUUU92Qc1MgI/DPKMCAGPpKniRYCN1pai/GWJsPinFWczCP2Q8YMF+IYSGU1p+2HGec3XFnNM3BrBbjk+1PCgNSE7q7GWKu6jsrP0jwq26OIb6RvavrWwShZD3FXTUwJA9I8EtWsPmAgz7lDaHshMBV32yIERhyzgwJPr+ayRCe3Ou+0TkoKyGoN36ijMCSqwEtJfjcwLUewmd/pq4NFk4IGF8RRpfyeH5XyUvpXn83P0boXD6ZiY+ZEGPHrSmP56sBWewxXbjByqVD8QDfT0Y+DoSA8dMeoY/mUcoA07MmQEjAmr4GdzfzYxlDB+Jn942ZjwshmI9/2U7CkD4m4JzNb1aru8Eg2gwIfr5b3czns5daDQsHzOfYTwzxJRIXQlAdf7ziDBkDhUgS/5Awn937oM4PsDgRAj082eN0yDwa2c57zhJph/gRgknA5sthhhyNnS8Ooy8ST0LJhXyyU8YkgcDYc542uxc8c4szoav1xy140ry2HIHP3H7wc85QBRACWQ8fX3Z37PRIrNnrOeOuDeg4G89XMYSe1pv725+2PXacEZa01xs5zti2f97eb7jkBbwKJPRkrTfX909vr4DE1diV/+Pr29P99WZdjOUiFU0Yyhqu1w8PG1cPD+v1sGiwUMIIS9Nvwl9fvwl/ff3/Cf8DEEJx7SZ+y/4AAAAASUVORK5CYII=;" parent="1" vertex="1">
          <mxGeometry x="-330" y="230" width="240" height="240" as="geometry" />
        </mxCell>
        <mxCell id="JiZBobh1F2u_1B55ugBq-18" value="&lt;font style=&quot;font-size: 58px;&quot;&gt;Authorization and&amp;nbsp; &amp;nbsp; Authentication&lt;/font&gt;" style="text;html=1;resizable=0;autosize=1;align=center;verticalAlign=middle;points=[];fillColor=none;strokeColor=none;" vertex="1" parent="1">
          <mxGeometry x="-110" y="50" width="900" height="80" as="geometry" />
        </mxCell>
        <mxCell id="JiZBobh1F2u_1B55ugBq-26" style="edgeStyle=orthogonalEdgeStyle;rounded=0;jumpSize=16;orthogonalLoop=1;jettySize=auto;html=1;strokeWidth=18;fontSize=63;startSize=16;" edge="1" parent="1" source="JiZBobh1F2u_1B55ugBq-19">
          <mxGeometry relative="1" as="geometry">
            <mxPoint x="-550" y="-540" as="targetPoint" />
            <Array as="points">
              <mxPoint x="2530" y="-530" />
              <mxPoint x="2530" y="1630" />
              <mxPoint x="-770" y="1630" />
              <mxPoint x="-770" y="-540" />
            </Array>
          </mxGeometry>
        </mxCell>
        <mxCell id="JiZBobh1F2u_1B55ugBq-19" value="" style="shape=image;verticalLabelPosition=bottom;labelBackgroundColor=default;verticalAlign=top;aspect=fixed;imageAspect=0;image=data:image/png,iVBORw0KGgoAAAANSUhEUgAAADAAAAAwCAYAAABXAvmHAAAABmJLR0QA/wD/AP+gvaeTAAAEW0lEQVRoge2YX0wcRRzHv7Mzu7e7dwcUWgotLRSrDRiKxmrRxMSHxiIYTXyAxMQYm0Dx4p++GE38UzVpYoyJ8aE2aoxWow1UIU1rDf5BE1+0tcU2UtFoLZQq/7kC93d3dnxAKMcdt3dHDmiyn6fbme/vX2bmN5MDHBwcHBwcrmNINpxKr50TC8es56qzEysbTpcTp4CV5rovgKUjJo3vxR1OcusdcTrRfSrzjI4ENlBJHOYEj6DBM2gnX10r0CYUSRInAeyiwHG0CcXOZFUVIInAPgJUAwAEdkhiusXWJutZpYoQhAj45g8RSE/ama2eAo6GN4GgNHZQbEXHRF4ys0UP8VIObCIdEO9PtDbN3c6yxddYCe5qGmX3onXaB6AGgAsgfwL4kje6n0pawHJjWNYVSiWBuOcNaY39FltByMbZr9WzhR7OGQVwOhUpgXVw9vfqKQAACDmQgugzs8HbNfu18luoTWhAKJ8Js0wI6z6bB3IXV4N75g/MqD8QKtUDoSymmQkcgAEgAOBXEPIxh/4hGgifL1r5FVicT3ij51E70UwBfYhKN0W5OjFAi8+fAGBh6OY6BNdugUVlyKFJaOOXsK63C6aWi6GqeoS9hXNOqBGCNnEZhRe+AgAMVtUjWFCG+dtBnRpG0bljMF0eDFXdD0P1xiQiB/0o/qUDLDKF4cpaGJ717cH/527b/VAxA28SBDuohOejQ+t7z5x518D8CDt3PxjXpwFASAzEMuPGTcUNrrpBIyGwyFTcPJddiLoLAELBQn7I4VhNxFsIQ88DsSyw8CRc0yOAiEnBBHAZgAagaKH/nzqPkZgCpDd7RxGJFCQqYrkhHm8bf6K8MRXtXBsllP2evZTSgDKDh/Q99sIZ5goQjH2aSby6G3LQ76tAn68CteVeewO7hHT9AJ4pCqSqv3bK2gSV+i6Ewc20OlOfrwKv7H8REiF4Yf+rKDv0WzrmsWjqH9bT27alY3LtJm4gnLi1jkziSoSAkCX+a6IoAYu670rXLDbq+yNeyT88BsOUAQFmhme6hBmEEvKjwLqKtaF/II/+DT/NQU/1Y6gt9+Kd2hIIAeztHEDnxfiOZAtj3PJ4a9Cy+eelFQDg9re6DrKvD/ksI5rUkBeU4ez2lM/a4jBmWh5PLVpKv83EPOG63/16e0+066NKWdVBFReoS4O+Zh30wmLkbixHfnklLkZUfH72ytKSV5Qpy6PfiebSnkxdLLpxd50c/6KmRK+TpcQPVi4E3v7uL4wHjQyiEgjd871Q1Hrs3RC0N0jiKtnkzo6xfdsLlTdKcl000fzARAiHf+yDyRNe4onDaVq/pbFmNG/pTDvbxB6T87IQ0jfHR47emOd6oDRfYwsNLo0F0N79L6bCSVaCMk5U1ymuKs+iafMPS8w5hrR63y0dI/fkMfJSvkarchUpL0eVqSYTYgmB7v6rON3vF5MRi4PSAKg0SBg7zyX5CB7flFF7dnBwcHBwsOM/wqpgVep+l3cAAAAASUVORK5CYII=;" vertex="1" parent="1">
          <mxGeometry x="-530" y="-700" width="340" height="340" as="geometry" />
        </mxCell>
        <mxCell id="JiZBobh1F2u_1B55ugBq-7" value="" style="shape=image;imageAspect=0;aspect=fixed;verticalLabelPosition=bottom;verticalAlign=top;shadow=0;glass=0;fontSize=32;fillColor=none;image=data:image/png,iVBORw0KGgoAAAANSUhEUgAAAOEAAADhCAMAAAAJbSJIAAAA3lBMVEX///8DK3X5mQD5lwD5lAAAH3D5kgD5lQAAKHN9h6kjPX8AAGkAJ3MAInEAIHEAJHIAG28AEWwAFW0AEGwACGoABmr/+vMAAGr5+vzl6O/a3uj+9uvw8vb+6M/CyNhQYpP+7dn7um3/+O6nr8Z0gac5TojN0t8VNnu5wNL5oST8ypL6slr94L/6rU36qT/7xIRmdJ+fqMGNmLaGkrJAVYz806b8zpv92rP7vnb6pTT93Lj7vHIpQoFhcJxNX5F6h6tgTV6WaEm+eTTllir6sFWUkqGgaTpqUlodM27NgyqQqj2OAAAQsUlEQVR4nO1dCXOqThIPgkAEEQF93sfz1ngbTV402f9u9vr+X2inBzxilGMYcNzKrypVKbmm6Z6+Z3h4+MEPfvCDH/zg5igUa63F8qPdflwuWrVi4dbjoYtSa5cycllDTwJ03TAVfTtrFW89LkqozYyckVa5M6iaoejt7q1HFxqlR87STgmTVfVIrJy0esu75mT3XUnKNi2anrUQaXJqte1pimXoafuAqiu7u2VkrWNlMBVpw+Jm81pxK3PJDzhSKPXnu4xlOIdz73dJY/FdwQRkjF91R6esMlx6djyjNF8pBhbZjDKr3GiY5FhaaRi7Zq1ah8HPNE5dfTmrMu/Y5yXNeexDDIVSysD0KbvSya8LneP081PRXMU0Zjv3pHLmCgifmpt9HXQfka18F8dSHZ+eMftxjS80dhYwxdye648S+t28pFRqHGa50o5jdOFR2OqYI61vRyqIDn1x8aIFmBLOWF08yBgqPZhWxvbSrOqoXOb98mUlLgkKZ8u+v1pMgo3IfVw8uERUaNdowLKt9Vg3GxUZpE35LqEYNZPjrKvWfaGA+U+xzcVCD3FQ/VW7dhjRkLyuTlpAotaJZmiU0EFetmpc98HqaI4a1y/v5xCJej2CgdHCDGlRWXFxMvtZZC+ucRiOAxezS/ojo4QW6IqcCwEPBV3m0m48woKquN3ilgCDflXJOECuKWeVXE5YZiFsZFSh9pAaNS6biQNKiEfazO2Md/QO0mxqmwXyWDKeQ3vPXPRNj6gk0YtiMtIowgyyPOODruXFxC4o1CyDcgqGIOvj1XeAia4x/YfuajVvhRpioZrycWLX88QCpHAUN3V0E3izZo8Zck6NyxGGgz5y7lxtyi0AnNF2vk6tgFH55coieF3uZ8QPmIU5n2OaIxapnJuDXfNUR7EDzJx/uVqh15F0PXuretiU2AGBn79ZCCgYSJVk3XwD8F8NpmyiKnNqAD+khm2nm7bJBLth5AAzHuiVL7AL63IFJB4VhtKLbSSkuUDTpg3JNet6mFT8dTVpdRP0rmeYrmEHCTnruueCdA1DYgouqeEeNX3HO5Bo1K8ZDRBTgxlt2jJIvKw6CGqyd+W6rumeDYgXbY1TewSXgbpRr+kbhaWJiKZh2p/H9hULBaqkZuciGzsqO75pAUpKROa5ZqRx9bB9YcJ9JIkEIxIUkbRlyepGlQ4uySSNx2804snNSHYYZ7JJI4GFUyFV2md3qGVD3JUywr3tYh2XnTjN6i1OnZhijh1lOgcPK8T1tZ6pOm0ZvXZ/T2UFnG9GaqYXi9eB0N86XRuyZljatr2Yt2pdlcCNiAg0tF7tXdH3nUSqpuuGstvKhBqaPsDgb0PfpTLv5Ixj+1S6jQwiKyafDoUIxRa0wOlpFYWbmRlDFD4mOZmjdbNSf7HrpFRDqafYkVIcBtC9ZaFQKWbY0TRzI5y1uAyWrEU0/hVLFr8bxmu7CvDacoxkaoomseftApB9i/ZNSaGRRk9uAD+Cig2igW0UweqWMKyOBOh1yyrle0LrDSvm0M7B+y3L+EU06osUlQje9zJ0wEIVaM5kKDdOphhKRD04pSeqtqtEkmSOENArRDcOQN48ZzGT8n7AMuWrTcE3DNYq+ZCqsSg6keDq0neTwgBSpkGrT26AKjflgCwsdmm37t+g6MO8ZqwHE3QfPYORUlkqrTnA7SaUZmIL+UhJjybH+AFMpFRJgTZbxnpNMNqezVx+gdvCmHG6j8BNMjT67aCdXaWWu6OJFjRz9ULnayqmzGyn90rzaubygw5SWTpbPW0HVGDNrxnSjMGCBroOIE3gZq5cqIhgaXIsds8eYI8vhD+Jlz55LGi4LXCnEzkXF9DEbj7SHBF1rGAVoUJoFj+AQIO9HvYvKKSg8cAicrl2WdwHRntItFFJaXi5a2Cnq7jV74JAxMUVjDSdDGiz+zmo5JuMGsIz1EHaZOUjgHtT2eXwYm7GYsKrWOJ+Nd1/rmxugmhn2MpbuKKGWw5ks+NryH17AwY9xUgtzRcK9RzeVcHqedFYaKlZfOq9bDdwQF/WcW9MVv5wSd9025q9u4nRu8MNXJa5pL2PUK637F8wHsX+B2dpeB8encn1ht4otk3dbnJKZs1te9EvOdq1UuovZinTsPcfknVjyV7Kwicqy0OXk6rphqX8Mg0jp8AmStqhx4tbMNJFSoZKO8O5Qk7175jA7mJlaO4EIhKNX9slm0kLd1RaO8PUTxgoZzQtqeMN6XQ9qaVV+XBI1U1z17qruVho1U3cpO7MwKylWL33Wftjufx4XC5gc8FdR1UU0zhMx7Rh7u7GpenulD15GcSd7WxeK12ca8XuvN0xrP3J6Wzu4x7cmtY2pzk2wjRXi5qX8BW6rV3WdNpnk7k665a/1cM+GLbzjzXfWrK7TDm786WVLctqp8XZ9KVNzc1Xu4juR9LEikm1Vqzysbu1e+6TSp2MDbV3BQt4RqmzmE+s2OEEp2dDqIvSzHb00gpzxbWHuW3bk7mQPmbl0eajzrE1HYsdE7/63KU1WkHvNcNbSqrKjiEfoI9Nmqq80zFnpZUFejWpMqNx2nZepkdPrvqZJH5lbGSm7BV2qkI1GV+Y4bdmdBiQ1K6WxgykLVF9DTSOJt/cbvTxzpxWBN28lfcslo0b69Q5lMPUX9HUw+x1wm5bL0SPJRCY0aKSpC4OMHM31DdLWG+ejDCTW+zBZCQrZdHAIxCoR7qraqEDXtytCjaYg5GXw/DWC+ZNEuK45m5EvyRi57ENSmRoxUTgw8PMuIlGhc294tpqtA5zMUyLBwmK0MWWjGvrZrv/IdYsVSGViXWHym2aSs9cAOzQS1XV+LziCqfS6JnzjznYiVhXJZVwL1FsS7uxlol55reAxNga3vBms3H3ZrVjbFqEZ6Xj3wF/m/HexJcO7B7L+GPvEp4bcaRuQK3lblEmmqOIOBPD0mBY+uhzp1LaWCE5vfBRCcrAsmLeJj+Enp3RIp8f8B6tWzXxfqh/++vv/0jwCIPJy7qaj+AZsObqBnoUozGcJAA8/PG8JIni67BB+yl4m+abFGqfB6LEJ87AS+LgmSonYd91/RZ92MOEaJOHmQfgHXJ5gR/So7Giy5x89TMq0WGDyLCpEROvo+lwvV5PP19Fh6no12daTwJLEf+aq/IE8w8RMnpunPyer06R5GJGiq+NKxcHA+wsIMe+l+HGpu/yhGu8SJhGng4bgYWxf1hrKmImDZ6uHM9PBUyj2Az/LPggVexLkkaiJ4fyI8xlYRJa4SxuwMKxgMdedj/riQc2SoOwJGpy7DuKfgKB4tTzvPxEwCSGe9oN9klvYgJ96ZAmSLM0DvW4DnwdJVZb+AyjFqv+TsYayQe7rwOCimSsufVGEAIfHl4ww6+pXB9oa3HvLjZAGlLc+D//UwKnjljbFLJx7zYyRDwRXoJcAVGHRGwWYbeRWE1FGckoH0w52mLdIHxgJ8PJse420pSCj3aK2M5PyJ4HW+fHutsI8EN68zgp/2f6Mt2cuAMgp/510xfAFju0NyxzxQuw8Lf7OUNJRIGiIL4dtAvYF2lE9ED4GEOce/zlEYGSu5rJDwQn0pf4xv5HzEQPH+8iitS3uvLAs+A50oEdNtmh1f7UNbpOWhM8cB73R1EmfIL/dD1jij1R/hWnNw5KF3gfUAPbWGViFlI0nwRXY5/HlgEyNE/8qXr5JBPTStwfm3hC4xddvZMN+AO2OGK12zz9PXi8Dx/UjrUgOpW87NobEkfB+R+ZzoNklkUiv2amUdzP2g/GfEJyDxNGaKK+Ov8jtcQn9gfQvwQTsadyWqxdSWiY7tMQ821P1fDkf9sXCvo8KKLHuvE0qBEPjw2bE0e9DE4V75DA27O3s46z3NTwVDSOY46dHuDaUblsBALHbUZr43y/qIK68Aj0RjganG6G2PILh7OxGg4aB+tyzN8FRRQeJ9YV5CGlz0sCzuyf5HKqnqb0O4g+yRUGvz/96MOqeChFnaZnMIUBDSK2hjG6bGvsh3nxEM3WgQjuDC98YRkJD5c6J6eDXRIC1YGdxvcTyG7GvCQN1l+CLJJ5+J6hujepK/JNLHuS5FfOvukjEl2K/Jm4wvtnXEnixSZ5fn4qBXa9we2Ox943Xu0SS4IsD2FjxAf2aUJ9kisA8i9OoXAY6jb8icPqEziPGH02f5OwBdSrzuQBHFsEyrLG9BmGhl3Jlvg/+1+qZJRCGkP8433eKZAqjfwzDFNHQF8OGuZFJEuZjQli/OhV6VNCOGs32PCCOCbRp9ghD5gThoJFpD5b+dMWUOGQIkMiKyTIikhDKbjPhr8iE+EawKFoa5jRwTOZihJxHRDu5RF3fQN8FSA6Y1G107onLEMiK44bhLeDepVnLeAc4HebEfndThcFf2QZElmBD+g3n9wPQimiAD8bjTlcC+cmEImsGNCYnQKi4uCJtnlUn0OpvuIgQpIOLENhRaj2rSecJQ5sR+HLeBH0mDhBBC8eZs3vkSj4DikuoYx7b4L7fJCkob/A6Zm3W7UGByd7LQlhQooHu+5PUrOop+nX7/c+mngwgSCggzAhxcPDRCKscdcznEZ5Ge7eR/vcT5n8m3hi8Mkwlnx3F50BuaUa1a7gPziIODWBGySgo3AhRf4VE0ikh6Gw1nmkhfY/x+cmEImsSOijHdDAb00gc9Zh+YGapAPD+JdTs5009vcHH81T/3kV9O3cgHtJ1ZVCOlD1f+/r7ofp8geCCE8BnYpvLjQ6nh9xC+0qLVOBqv/nv3Zz/dEolMfIR/MMV4ECSZhesSTVz7DJj/deigq2fzn56aNRGF4OIpqT51Ouvtm5bUlsfrcmv58HzlE+5EwOj+qrLaDHV/10zUcbINU62C+GebI1r31t4m1zvCBfXU8EZ5WCOIpigVAg5M9NYBn5aPxF61UW7cUwiZen/MG3sznFI9rFxGTUbH4OpP1yC2jjD+crUAF2iqXEYc6hsOKaj7YRncUwEiLLCT4aT6/inpewaobn+SNnB8TRFk1AJlo4zDlXHw16EPg9e/AUwxRUm+K3hU/oJYgjBvgHeD2plyHRc/PRoNVg/JLYL/k55t/yf94SIoo/eAxYupZo/rn5/HPwG/K0DgufwUe7bt7KTnWsOhygmXqui8pPzy+jyWQyHr2tn8I5enSBC0JYnzdePYKIzbGjrfw8obZkK2rg/h4QqBdPH+20jeSOAHNrYgcRnxdka5OYPuWPp5L3at8MuPNsWL6a6J0i2yFNhiC8ZYIiNQOA9h7+83qid8w7qn+8HgYvcLKA0XnIdAb+aOAkX00KzEE4Gu5LsP20o5dyf9MQGkB4F98YH//c2/h7nIZ4bn2zgZsDyWu7e7KxHmPH7A6n4QQSmecszCOX0nHEkQncLyGoTl9FPtbB0QDuLv9WtYTeNZFvgvVATutJf32ZEVc6ACBy+r5CYCjZsY/0UiVf6MIIphen4XivOyXQpAIrMQIR8KK5b7+C/jwEfEE7YNgCbh74lqvFLaSNqWMignbAsAUIh/hR4+zXNQohYF1yFce6BCskGELTzrXwXze1gPUGThj11OSJl0UyAccdgzzZ4O2wWBD9eqJ97s+LOUH+bSAK0gmVOBTE3fi3Hho9lDdIDoUDL0VhsvZe9nN3aDyPEkfjAEGSx7Kfu0TVca2dAsbNKw3RoDqcOFQKHkXBO0b+aTpAVIbciIR1lP80/w+n4Q9+8AMP/A8bc0uaanT4xgAAAABJRU5ErkJggg==;" vertex="1" parent="1">
          <mxGeometry x="300" y="250" width="180" height="180" as="geometry" />
        </mxCell>
        <mxCell id="JiZBobh1F2u_1B55ugBq-22" value="" style="endArrow=none;html=1;rounded=0;" edge="1" parent="1" target="JiZBobh1F2u_1B55ugBq-7">
          <mxGeometry width="50" height="50" relative="1" as="geometry">
            <mxPoint x="860" y="370" as="sourcePoint" />
            <mxPoint x="-90" y="352.24299065420564" as="targetPoint" />
          </mxGeometry>
        </mxCell>
        <mxCell id="JiZBobh1F2u_1B55ugBq-30" style="edgeStyle=none;rounded=0;jumpSize=16;orthogonalLoop=1;jettySize=auto;html=1;strokeWidth=18;fontSize=63;startSize=16;" edge="1" parent="1" source="JiZBobh1F2u_1B55ugBq-29">
          <mxGeometry relative="1" as="geometry">
            <mxPoint x="-1210" y="210" as="targetPoint" />
          </mxGeometry>
        </mxCell>
        <mxCell id="JiZBobh1F2u_1B55ugBq-29" value="&lt;span style=&quot;font-size: 58px;&quot;&gt;CDN Material UI etc..&lt;/span&gt;" style="text;html=1;resizable=0;autosize=1;align=center;verticalAlign=middle;points=[];fillColor=none;strokeColor=none;" vertex="1" parent="1">
          <mxGeometry x="-1495" y="-80" width="570" height="80" as="geometry" />
        </mxCell>
        <mxCell id="JiZBobh1F2u_1B55ugBq-31" value="Load Balance &amp;amp;&lt;br style=&quot;font-size: 63px;&quot;&gt;&amp;nbsp;API Gateway" style="text;html=1;resizable=0;autosize=1;align=center;verticalAlign=middle;points=[];fillColor=none;strokeColor=none;strokeWidth=13;fontSize=63;" vertex="1" parent="1">
          <mxGeometry x="-450" y="500" width="470" height="160" as="geometry" />
        </mxCell>
      </root>
    </mxGraphModel>
  </diagram>
</mxfile>
